<?xml version="1.0" standalone="no"?>
<!DOCTYPE svg PUBLIC "-//W3C//DTD SVG 20010904//EN"
 "http://www.w3.org/TR/2001/REC-SVG-20010904/DTD/svg10.dtd">
<svg version="1.0" xmlns="http://www.w3.org/2000/svg"
 width="2481.000000pt" height="3417.000000pt" viewBox="0 0 2481.000000 3417.000000"
 preserveAspectRatio="xMidYMid meet">

<g transform="translate(0.000000,3417.000000) scale(0.100000,-0.100000)"
fill="#000000" stroke="none">
<path d="M13245 32929 c-232 -11 -330 -25 -529 -78 -44 -12 -103 -21 -131 -21
-29 0 -74 -4 -101 -9 -27 -5 -105 -14 -174 -21 -329 -29 -587 -92 -877 -216
-275 -118 -756 -391 -947 -539 -304 -235 -758 -680 -980 -959 -111 -141 -280
-413 -358 -576 -25 -52 -86 -158 -137 -235 -112 -171 -202 -351 -209 -418 -4
-38 -11 -52 -34 -70 -71 -54 -111 -93 -128 -126 -10 -20 -41 -60 -69 -89 -48
-49 -66 -92 -39 -92 6 0 19 7 29 16 10 9 23 13 28 9 18 -11 12 -43 -19 -105
-16 -33 -30 -67 -31 -77 0 -11 -3 -13 -6 -5 -2 6 -8 10 -13 7 -5 -3 -11 4 -15
15 -9 28 -24 25 -36 -7 -7 -19 -7 -35 0 -51 17 -37 13 -56 -25 -129 l-36 -68
16 -44 c15 -42 15 -45 -3 -57 -15 -11 -18 -22 -14 -55 4 -28 0 -54 -15 -87
-11 -26 -37 -108 -57 -182 -37 -135 -55 -181 -82 -211 -8 -9 -29 -59 -47 -110
-19 -52 -52 -128 -75 -169 -22 -41 -41 -80 -41 -87 0 -28 32 3 81 78 68 104
89 106 89 12 0 -37 5 -94 11 -127 6 -34 15 -86 20 -116 17 -92 39 -162 70
-217 16 -28 36 -83 44 -122 17 -73 17 -77 -3 -425 -7 -115 -8 -202 -1 -245 5
-36 16 -147 24 -246 8 -99 22 -214 30 -255 9 -41 22 -111 31 -155 8 -44 26
-114 39 -155 13 -41 26 -88 29 -103 5 -20 16 -31 37 -39 19 -7 42 -28 59 -55
26 -40 27 -47 16 -75 -14 -32 -10 -78 6 -78 6 0 8 -12 5 -29 -4 -17 -2 -31 4
-33 16 -5 -1 -37 -23 -44 -13 -4 -24 -1 -29 7 -7 11 -11 10 -24 -6 -11 -15
-13 -16 -9 -3 7 21 -19 18 -46 -5 -13 -11 -20 -29 -20 -55 0 -21 -7 -48 -16
-60 -8 -12 -18 -47 -21 -78 -7 -70 13 -275 37 -379 19 -77 42 -201 56 -295 11
-78 53 -196 87 -247 82 -120 217 -396 217 -444 0 -8 15 -30 34 -48 19 -18 42
-51 51 -74 59 -139 90 -184 141 -208 41 -20 38 -43 -7 -47 -81 -7 -89 -77 -17
-135 22 -17 46 -44 54 -59 8 -16 21 -28 29 -28 8 0 15 -7 15 -15 0 -8 8 -15
19 -15 13 0 19 8 19 28 1 15 4 53 8 85 4 35 1 70 -6 90 -7 17 -14 51 -16 74
-2 33 0 41 12 36 15 -5 17 23 14 157 0 30 -2 242 -5 470 -2 228 -8 465 -14
525 -6 61 -15 180 -21 265 -15 199 -15 890 -1 950 6 25 11 61 11 80 1 33 1 34
15 16 15 -19 15 -19 15 1 0 13 8 23 23 26 19 5 22 13 23 62 1 30 -2 52 -7 49
-5 -3 -9 0 -9 6 0 6 -4 8 -10 5 -5 -3 -10 0 -10 7 0 7 14 21 31 31 22 12 29
22 25 34 -5 12 -4 13 7 5 8 -7 17 -9 21 -5 4 4 12 1 17 -7 8 -11 12 -12 15 -3
4 8 13 9 35 1 33 -11 53 -3 29 12 -8 6 -11 10 -5 10 5 0 4 5 -3 12 -16 16 -15
28 2 28 8 0 16 7 18 16 3 14 7 13 31 -6 21 -17 25 -25 17 -35 -8 -10 -8 -15 1
-21 7 -4 15 -2 17 4 2 7 11 20 20 29 16 16 16 16 0 10 -13 -5 -18 -1 -18 13 0
10 9 22 20 25 11 3 20 11 20 16 0 6 -9 7 -20 4 -11 -4 -20 -2 -20 4 0 6 6 10
13 9 6 -2 11 3 9 10 -1 8 2 12 8 10 7 -2 10 -6 9 -8 -2 -3 9 -18 24 -34 15
-16 27 -33 27 -37 0 -5 13 -6 29 -3 26 6 29 4 24 -15 -3 -14 0 -23 11 -27 9
-3 16 -12 16 -19 0 -16 34 -55 50 -55 19 0 6 -24 -21 -37 -13 -7 -21 -13 -18
-13 4 0 3 -16 -1 -35 -6 -27 -5 -35 6 -35 8 0 14 5 14 10 0 6 5 10 11 10 6 0
9 -8 7 -17 -2 -13 -11 -17 -28 -15 -22 2 -23 1 -7 -8 9 -6 17 -16 17 -22 0 -7
-5 -6 -15 2 -12 10 -15 10 -15 0 0 -6 9 -14 19 -17 12 -3 17 -11 14 -19 -3 -9
2 -14 18 -15 l24 0 -23 -10 c-21 -8 -22 -11 -8 -24 8 -8 20 -15 26 -15 6 0 8
-5 3 -12 -4 -7 -7 -22 -8 -33 0 -14 -7 -20 -21 -19 -19 0 -20 -2 -11 -18 7
-10 20 -18 29 -18 22 0 23 -7 4 -25 -14 -15 -11 -61 6 -71 5 -3 12 3 15 15 6
22 18 27 28 11 3 -5 2 -10 -4 -10 -6 0 -8 -7 -5 -15 4 -8 12 -15 18 -15 7 0
11 -12 10 -31 -2 -23 1 -29 13 -25 12 5 13 0 8 -24 -4 -18 -3 -30 4 -30 6 0 8
-8 5 -17 -4 -12 -3 -14 3 -6 12 16 69 21 65 6 -1 -7 2 -13 8 -13 5 0 10 -5 10
-10 0 -6 -15 -8 -40 -4 -29 5 -40 3 -40 -6 0 -7 6 -10 14 -7 8 3 17 -1 20 -9
8 -22 7 -26 -4 -19 -5 3 -10 -3 -10 -14 0 -26 18 -27 35 -4 12 16 14 16 32 -5
16 -20 22 -22 46 -13 16 6 41 9 57 6 27 -5 29 -3 21 17 -4 12 -14 24 -21 26
-9 3 -11 -1 -7 -12 4 -10 3 -15 -3 -11 -6 3 -10 14 -10 24 0 14 6 17 25 13 16
-3 25 -11 25 -23 0 -13 7 -19 24 -19 17 0 31 -10 45 -34 25 -40 26 -47 6 -40
-8 4 -15 2 -15 -4 0 -6 4 -12 10 -14 19 -6 -8 -30 -35 -30 -25 0 -26 -3 -21
-30 3 -17 6 -35 6 -40 0 -5 9 -6 20 -3 11 4 20 2 20 -4 0 -6 -4 -11 -10 -11
-5 0 2 -12 15 -26 32 -34 31 -48 -2 -73 -19 -13 -23 -20 -13 -21 9 0 21 5 28
12 6 6 15 8 19 3 5 -4 2 -10 -4 -12 -19 -7 -16 -26 7 -46 22 -19 25 -15 10 14
-8 15 -7 19 5 19 22 0 20 -57 -2 -63 -15 -4 -14 -6 5 -12 16 -5 21 -13 17 -25
-8 -24 12 -73 26 -64 6 3 15 0 20 -7 14 -22 11 -59 -5 -59 -7 0 -20 -7 -27
-16 -11 -14 -9 -20 19 -43 37 -30 42 -45 11 -36 -18 6 -19 5 -7 -14 7 -12 21
-21 31 -21 10 0 15 -5 12 -11 -4 -6 0 -9 11 -7 15 2 18 -2 16 -19 -4 -28 43
-62 61 -44 13 13 27 15 27 3 0 -11 -58 -34 -69 -28 -5 4 -11 -4 -13 -16 -2
-12 -9 -24 -17 -26 -10 -3 -12 0 -8 12 4 9 2 16 -4 16 -16 0 -22 -28 -11 -59
9 -26 8 -28 -9 -24 -10 3 -19 1 -19 -4 0 -18 13 -22 32 -12 11 6 37 8 59 4 39
-7 40 -8 23 -26 -12 -13 -20 -16 -25 -8 -5 8 -8 8 -13 0 -4 -6 1 -14 11 -18
15 -6 13 -8 -11 -13 -16 -3 -31 -10 -33 -16 -5 -14 35 -26 43 -13 3 5 10 7 15
3 6 -3 16 1 22 11 10 12 18 14 37 7 l25 -9 -23 -7 c-31 -10 -28 -42 8 -78 17
-16 30 -31 30 -34 0 -2 -13 -1 -30 3 -24 4 -30 2 -30 -11 0 -12 6 -16 18 -12
20 6 71 -29 59 -41 -5 -4 -11 -3 -15 2 -6 9 -31 11 -57 6 -14 -3 37 -25 52
-22 6 1 11 -6 11 -16 0 -10 3 -27 7 -37 6 -14 5 -17 -3 -12 -7 4 -12 4 -12 -1
1 -14 24 -39 43 -46 9 -3 17 -12 17 -18 0 -8 -5 -7 -17 2 -15 13 -15 12 -5 -8
10 -18 9 -25 -5 -39 -30 -30 -43 -62 -28 -68 9 -3 12 -16 10 -36 -3 -24 2 -38
21 -57 14 -14 23 -32 20 -40 -3 -8 -6 -17 -6 -19 0 -2 -4 -4 -10 -4 -5 0 -10
7 -10 17 0 9 -3 13 -7 9 -5 -4 -8 -21 -8 -36 0 -18 4 -25 10 -19 14 14 21 11
22 -12 1 -13 -5 -23 -18 -26 -10 -3 -19 -8 -19 -12 0 -9 42 -8 57 2 17 11 26
-10 14 -30 -10 -17 -10 -17 -11 1 0 18 -1 18 -18 3 -10 -10 -23 -17 -28 -17
-5 0 -2 5 6 10 8 5 11 10 5 10 -13 -1 -65 -46 -65 -57 0 -5 -20 -20 -45 -35
-42 -26 -56 -50 -36 -62 5 -3 11 -17 13 -31 3 -13 2 -22 -2 -20 -4 3 -19 -4
-33 -15 -32 -25 -41 -25 -34 0 5 18 4 19 -16 5 -12 -8 -30 -15 -40 -15 -10 0
-16 -4 -13 -9 3 -4 -1 -17 -9 -27 -8 -11 -15 -14 -15 -7 0 7 -11 12 -24 11
-19 -2 -22 -5 -14 -15 16 -19 3 -42 -21 -36 -16 4 -21 1 -21 -16 0 -11 -9 -30
-21 -42 -18 -18 -19 -25 -10 -46 14 -32 14 -32 -9 -26 -18 5 -19 2 -14 -24 5
-23 2 -32 -13 -38 -16 -7 -16 -8 6 -14 28 -7 41 -31 17 -31 -9 0 -16 -6 -16
-14 0 -8 -7 -16 -15 -20 -9 -3 -15 0 -15 10 0 8 5 12 10 9 6 -3 10 -1 10 4 0
6 -7 11 -15 11 -9 0 -15 -9 -15 -24 0 -13 -7 -26 -15 -30 -9 -3 -15 0 -15 10
0 10 -6 14 -14 11 -8 -3 -20 0 -26 8 -13 16 1 27 20 15 9 -6 19 -1 32 15 10
13 18 26 18 29 0 8 -34 -6 -41 -17 -4 -5 -19 -2 -36 7 -23 11 -33 12 -42 3
-16 -16 -14 -57 4 -63 8 -4 15 -15 15 -26 0 -15 5 -19 20 -15 13 3 20 0 20 -9
0 -8 -8 -14 -17 -14 -14 0 -15 -2 -4 -9 11 -7 11 -9 0 -14 -10 -4 -11 -8 -3
-14 15 -11 26 -73 14 -73 -9 0 -14 14 -12 32 1 3 -6 12 -15 20 -13 10 -17 10
-20 1 -3 -8 -14 -11 -26 -8 -12 3 -31 -1 -42 -8 -17 -13 -18 -19 -7 -53 13
-42 8 -58 -17 -49 -13 5 -14 4 -3 -6 20 -21 15 -41 -8 -34 -11 3 -20 2 -20 -3
0 -5 9 -12 20 -15 11 -3 24 -16 29 -29 11 -30 6 -35 -15 -14 -21 21 -29 14
-14 -13 8 -17 8 -21 -2 -19 -7 2 -12 -3 -10 -9 3 -18 -9 -16 -24 5 -12 16 -13
16 -14 -4 0 -13 8 -24 20 -27 11 -3 20 -10 20 -17 0 -7 -8 -9 -21 -5 -24 8
-24 9 11 -62 14 -29 33 -54 43 -56 24 -7 22 -27 -3 -27 -11 0 -20 -4 -20 -10
0 -5 -5 -10 -11 -10 -8 0 -8 4 0 14 17 20 2 48 -23 44 -11 -2 -21 -9 -20 -15
1 -7 2 -31 3 -53 1 -28 5 -40 16 -40 8 0 15 -4 15 -10 0 -5 -9 -10 -19 -10
-12 0 -18 -7 -17 -17 1 -13 -6 -18 -21 -17 -19 1 -23 -4 -23 -27 0 -29 14 -46
25 -30 3 6 12 8 21 4 11 -4 12 -9 3 -19 -6 -8 -16 -11 -23 -8 -6 3 1 -4 17
-16 28 -23 36 -55 15 -62 -10 -4 -10 -11 1 -34 8 -16 13 -35 12 -41 -1 -7 5
-13 14 -13 8 0 15 -7 15 -15 0 -8 4 -15 9 -15 5 0 12 -14 16 -30 4 -17 10 -28
15 -25 5 3 7 -6 4 -20 -4 -24 -2 -26 26 -21 26 4 33 0 42 -20 17 -36 28 -29
28 16 0 22 -5 40 -10 40 -7 0 -7 6 -1 18 7 13 7 22 0 29 -7 7 -2 12 15 15 14
3 26 1 26 -4 0 -5 9 -4 20 2 16 9 18 8 14 -5 -4 -8 -1 -21 5 -29 9 -11 5 -21
-18 -46 -23 -26 -28 -40 -26 -69 3 -25 2 -30 -4 -16 -8 19 -8 19 -15 -3 -5
-14 -3 -29 4 -37 10 -12 9 -15 -4 -15 -25 0 -19 -20 7 -21 20 -1 20 -2 2 -6
-32 -8 -42 -23 -25 -36 8 -7 22 -21 30 -32 12 -17 10 -16 -11 3 -31 27 -39 28
-32 4 4 -15 -1 -18 -27 -16 -21 1 -39 -6 -57 -22 -14 -13 -29 -21 -33 -19 -4
3 -11 -2 -14 -10 -4 -12 -17 -14 -51 -11 -25 2 -43 0 -39 -5 3 -5 -2 -17 -11
-26 -14 -14 -18 -14 -26 -2 -5 8 -9 25 -10 39 0 16 -3 19 -6 10 -3 -8 -11 -18
-17 -22 -6 -5 -7 -8 -1 -8 6 0 10 -16 11 -35 1 -43 3 -45 49 -51 27 -3 35 -1
29 8 -5 10 -4 10 6 1 14 -13 5 -33 -16 -33 -8 0 -14 -7 -14 -15 0 -8 5 -15 10
-15 6 0 10 -10 10 -22 0 -13 4 -29 9 -37 6 -9 4 -28 -3 -50 -14 -40 -11 -60
13 -78 14 -11 14 -12 -2 -13 -25 0 -32 -26 -13 -55 19 -28 20 -35 6 -35 -5 0
-10 7 -10 15 0 19 -36 20 -44 0 -3 -8 2 -22 12 -31 9 -10 17 -22 17 -28 2 -26
40 -105 80 -166 118 -182 184 -275 233 -332 78 -89 101 -132 84 -158 -15 -24
-16 -52 -1 -67 13 -13 15 -169 1 -186 -5 -6 -13 -97 -17 -200 -8 -211 1 -183
-110 -320 -33 -41 -80 -100 -105 -132 -48 -62 -315 -317 -457 -437 -49 -41
-137 -105 -198 -142 -109 -68 -397 -259 -445 -297 -21 -16 -118 -59 -370 -164
-268 -111 -370 -152 -460 -185 -58 -21 -116 -43 -130 -49 -60 -25 -510 -200
-554 -215 -27 -10 -122 -48 -210 -86 -89 -37 -211 -89 -273 -114 -61 -25 -282
-130 -490 -233 -524 -261 -701 -329 -1203 -468 -112 -31 -275 -92 -455 -170
-262 -114 -496 -204 -725 -280 -129 -42 -262 -91 -295 -107 -74 -38 -159 -92
-192 -122 -17 -16 -43 -26 -79 -30 -201 -23 -376 -205 -468 -485 -19 -58 -51
-170 -70 -249 -19 -78 -42 -166 -50 -195 -9 -29 -25 -97 -37 -152 -36 -168
-88 -318 -187 -549 -141 -328 -149 -349 -207 -506 -29 -80 -60 -161 -68 -180
-8 -19 -23 -53 -32 -75 -17 -40 -31 -69 -123 -265 -42 -89 -78 -173 -157 -365
-7 -16 -16 -41 -20 -55 -4 -14 -11 -29 -15 -35 -4 -5 -35 -82 -69 -170 -34
-88 -71 -180 -81 -205 -10 -25 -23 -61 -28 -80 -6 -19 -37 -114 -69 -210 -33
-96 -70 -211 -83 -255 -12 -44 -33 -115 -46 -158 -13 -43 -24 -86 -24 -96 0
-10 -7 -38 -16 -62 -9 -24 -22 -69 -29 -99 -7 -30 -27 -109 -45 -175 -17 -66
-34 -131 -37 -145 -6 -37 -41 -205 -58 -280 -19 -87 -31 -155 -50 -275 -15
-90 -38 -219 -65 -360 -5 -27 -16 -104 -25 -170 -18 -140 -41 -281 -62 -380
-8 -38 -19 -90 -23 -115 -5 -25 -19 -85 -33 -135 -14 -49 -30 -112 -37 -140
-7 -27 -20 -79 -30 -115 -10 -36 -26 -94 -35 -130 -9 -36 -22 -85 -30 -110 -7
-25 -18 -63 -23 -85 -6 -22 -20 -74 -31 -115 -20 -72 -31 -118 -81 -345 -26
-118 -154 -636 -168 -680 -6 -16 -15 -57 -22 -90 -7 -33 -18 -80 -25 -105 -8
-25 -17 -61 -20 -80 -4 -19 -15 -60 -25 -90 -10 -30 -23 -80 -30 -110 -6 -30
-15 -64 -20 -75 -10 -26 -60 -288 -90 -470 -5 -33 -14 -91 -20 -130 -28 -168
-51 -400 -66 -665 -15 -255 -2 -644 27 -776 8 -39 3 -84 -21 -204 -5 -25 -18
-90 -29 -145 -11 -55 -29 -140 -40 -190 -12 -49 -26 -112 -31 -138 -5 -27 -12
-52 -14 -55 -6 -9 -35 -152 -46 -222 -5 -30 -23 -120 -40 -200 -28 -130 -55
-273 -80 -415 -5 -27 -9 -1068 -9 -2312 l-1 -2263 12059 0 12060 0 6 48 c6 46
17 105 36 192 10 45 42 140 60 172 5 10 9 23 9 29 0 6 14 28 30 48 17 20 56
66 86 104 53 64 133 126 209 163 53 25 137 122 176 205 83 171 88 334 19 584
-11 42 -49 165 -129 415 -128 399 -163 528 -201 725 -7 33 -24 114 -40 180
-16 66 -31 138 -34 160 -7 52 -101 413 -110 422 -3 3 -6 16 -6 28 0 12 -14 69
-31 126 -17 57 -37 131 -44 164 -7 33 -24 112 -38 175 -14 64 -28 171 -32 240
-3 69 -13 174 -21 234 -8 61 -14 129 -14 153 0 23 -5 62 -10 85 -6 24 -18 96
-28 161 -15 98 -16 124 -6 155 32 94 90 391 110 556 16 141 19 523 4 647 -32
268 -38 305 -90 559 -43 208 -39 193 -109 463 l-62 238 12 207 c12 211 7 510
-10 612 -6 30 -15 96 -21 145 -15 113 -35 202 -60 266 -12 28 -24 94 -29 152
-9 109 -55 304 -126 532 l-43 140 -11 295 c-6 162 -16 324 -21 360 -6 36 -14
101 -18 145 -5 44 -16 109 -25 145 -9 36 -25 106 -37 155 -12 50 -40 158 -62
240 l-41 150 -2 200 c-1 186 -17 477 -30 570 -14 101 -38 229 -61 325 -13 58
-28 125 -33 150 -47 233 -112 482 -143 555 -17 38 -35 98 -40 135 -16 109 -38
201 -64 262 -13 31 -24 65 -24 75 1 57 -150 584 -188 658 -32 63 -101 295
-117 395 -9 58 -30 148 -46 200 -16 52 -37 124 -48 160 -11 36 -28 90 -39 120
-67 185 -100 312 -122 458 -5 40 -24 125 -40 189 -17 64 -30 124 -30 134 0 18
-104 362 -119 394 -5 11 -27 58 -49 105 -53 117 -142 258 -199 315 -87 88
-214 155 -295 155 -42 0 -85 21 -159 76 -37 28 -154 94 -260 148 -107 54 -207
109 -224 121 -16 12 -64 41 -105 65 -41 23 -97 57 -125 75 -68 44 -415 225
-430 225 -3 0 -69 30 -147 66 -79 36 -170 76 -203 89 -87 33 -341 141 -555
235 -102 45 -252 111 -335 146 -82 36 -172 76 -200 89 -27 13 -88 39 -135 58
-102 42 -174 73 -215 92 -16 8 -97 45 -180 84 -82 38 -227 105 -321 149 -93
44 -192 89 -220 100 -27 11 -87 37 -134 57 -146 64 -280 116 -415 162 -299
102 -517 174 -615 203 -262 77 -289 88 -425 183 -71 50 -178 131 -237 179
-114 94 -349 332 -405 411 -31 42 -53 59 -53 40 0 -12 -39 -261 -61 -388 -37
-218 -127 -515 -209 -690 -10 -22 -24 -59 -31 -83 -7 -23 -16 -42 -20 -42 -4
0 -22 -24 -39 -52 -43 -73 -77 -120 -99 -139 -10 -8 -27 -32 -37 -51 -28 -54
-160 -192 -264 -278 -51 -41 -117 -98 -148 -126 -32 -28 -67 -55 -79 -58 -13
-4 -26 -18 -29 -32 -3 -13 -10 -24 -14 -24 -4 0 -24 -16 -45 -35 -21 -19 -53
-41 -71 -50 -18 -8 -52 -42 -76 -75 -24 -33 -50 -62 -58 -65 -8 -3 -22 -20
-31 -38 -9 -17 -29 -39 -45 -47 -16 -8 -31 -18 -32 -23 -2 -4 -8 -5 -13 -1 -5
3 -14 -6 -20 -20 -10 -22 -82 -66 -108 -66 -5 0 -11 -3 -13 -7 -2 -5 -17 -18
-35 -30 -29 -20 -41 -22 -125 -19 -73 3 -97 1 -110 -11 -16 -15 -37 -15 -195
0 -12 1 -25 5 -29 10 -13 12 -41 8 -55 -9 -11 -14 -10 -18 5 -30 17 -12 17
-13 -5 -10 -13 2 -37 9 -54 15 -22 9 -35 10 -47 2 -23 -15 -28 -14 -28 4 0 8
-5 15 -11 15 -5 0 -7 5 -4 10 4 6 -8 10 -30 10 -22 0 -34 4 -30 10 3 6 -3 10
-13 10 -11 0 -23 -7 -26 -16 -10 -27 -28 -3 -23 30 3 17 3 25 0 19 -2 -7 -11
-13 -19 -13 -8 0 -14 -5 -14 -11 0 -6 -7 -17 -15 -25 -13 -14 -17 -14 -31 0
-14 14 -11 20 7 18 4 -1 7 10 7 25 0 33 22 47 39 25 11 -15 12 -14 13 11 0 16
-4 26 -9 23 -5 -3 -27 -8 -50 -11 -29 -4 -41 -2 -41 7 0 8 -5 6 -11 -4 -12
-22 -36 -10 -90 44 -21 21 -42 38 -48 38 -6 0 -11 6 -11 13 0 16 -44 67 -58
67 -10 0 -28 37 -25 51 1 3 -13 12 -32 19 -18 7 -36 22 -38 32 -3 10 -9 18
-14 17 -25 -4 -34 2 -28 21 4 11 2 20 -4 20 -6 0 -11 8 -12 18 0 13 -3 12 -11
-5 -16 -34 -26 -28 -23 12 2 19 0 33 -5 30 -5 -3 -11 -1 -15 5 -3 5 3 10 15
10 17 0 19 4 14 28 -7 31 -24 54 -24 33 0 -10 -3 -11 -14 -2 -7 6 -22 8 -31 4
-13 -4 -16 -3 -11 5 4 7 15 12 24 12 11 0 18 9 18 25 1 14 -2 25 -6 25 -20 0
-19 35 1 57 13 12 19 23 15 23 -5 0 2 8 14 18 18 15 20 21 10 46 -9 24 -8 27
5 22 10 -4 19 2 25 17 5 12 9 17 9 11 2 -22 31 -10 31 13 0 23 15 35 48 37 31
2 62 39 62 73 0 30 8 38 33 34 4 0 7 4 7 9 0 6 -5 10 -11 10 -5 0 -7 5 -4 10
4 6 16 8 27 4 16 -5 19 -2 14 13 -4 12 1 24 14 33 20 14 29 47 10 35 -5 -3
-10 1 -10 9 0 9 5 17 10 17 6 1 15 2 20 3 6 0 10 4 10 9 0 4 0 10 0 13 0 4 -7
1 -15 -6 -15 -13 -39 -5 -29 11 3 5 10 7 15 4 5 -4 9 3 9 14 0 14 6 21 19 21
17 0 18 4 11 31 -9 30 -9 31 10 14 18 -16 18 -16 13 4 -4 17 0 22 26 27 28 6
44 24 21 24 -5 0 -10 7 -10 15 0 8 -5 15 -10 15 -18 0 -53 38 -45 49 3 6 -1
11 -9 11 -9 0 -16 7 -16 16 0 8 -4 12 -10 9 -5 -3 -10 -2 -10 4 0 20 19 21 30
1 16 -30 27 -24 35 18 17 94 16 89 5 67 -9 -17 -9 -15 -5 9 4 17 1 32 -5 36
-20 12 0 58 32 73 16 8 29 17 29 21 -1 3 0 9 1 14 0 4 2 24 2 45 1 27 -3 36
-12 32 -8 -3 -12 0 -10 7 3 7 18 16 35 20 21 5 33 16 37 33 4 17 11 23 23 18
13 -5 15 -2 11 15 -4 15 -2 19 8 15 8 -3 14 0 14 6 0 7 6 11 13 9 23 -5 59 41
53 68 -5 17 -2 24 9 24 15 0 19 -11 15 -40 -2 -19 9 -8 24 22 8 16 20 23 41
23 34 0 55 23 34 36 -10 6 -8 9 8 9 33 0 74 22 69 36 -3 7 6 15 21 19 28 7 35
13 76 68 15 20 37 37 47 37 24 0 37 20 19 31 -10 6 -9 10 6 15 11 4 23 12 27
18 4 6 8 -1 8 -16 0 -23 4 -28 25 -28 28 0 88 33 78 43 -3 4 4 18 17 32 17 18
27 22 36 14 14 -11 29 4 20 20 -3 5 7 11 22 14 15 3 30 0 34 -6 4 -8 11 -7 22
2 8 7 30 11 48 10 36 -3 98 27 98 49 0 6 7 12 15 12 8 0 15 4 15 10 0 13 -78
52 -82 40 -2 -5 -21 -11 -43 -13 -22 -2 -48 -8 -58 -12 -10 -4 -40 -3 -67 2
-39 8 -50 7 -54 -4 -3 -7 -15 -13 -26 -13 -12 0 -31 -5 -42 -11 -15 -8 -22 -8
-28 1 -4 6 -31 14 -61 16 -67 6 -100 21 -92 42 5 11 3 13 -8 7 -12 -8 -12 -6
0 8 18 23 -5 23 -31 0 -13 -11 -18 -12 -18 -3 0 7 8 18 17 25 17 13 26 55 11
55 -4 0 -8 5 -8 10 0 6 7 10 15 10 20 0 19 20 -2 37 -17 13 -16 14 4 8 27 -7
39 10 16 25 -16 10 -15 10 5 5 13 -4 22 -2 22 4 0 6 17 11 38 11 21 0 47 7 58
16 10 8 13 12 5 8 -11 -5 -13 -3 -7 11 6 15 4 16 -9 5 -15 -12 -16 -9 -13 26
3 45 30 55 38 14 3 -18 12 -26 30 -28 14 -1 35 -5 48 -8 18 -4 22 0 22 20 0
13 3 31 6 40 7 19 56 21 84 4 17 -11 22 -10 30 2 12 19 2 33 -21 27 -23 -6
-24 -3 -2 23 10 11 25 20 35 20 14 0 18 9 20 35 0 19 1 40 2 47 2 22 -22 19
-26 -3 -4 -29 -28 -38 -28 -11 0 30 -11 53 -22 46 -5 -3 -8 3 -6 13 3 21 -17
53 -34 53 -5 0 -4 -9 2 -20 12 -22 5 -60 -11 -60 -5 0 -9 9 -9 21 0 16 -4 19
-17 14 -45 -18 -53 -17 -63 9 -9 24 -13 26 -50 20 -34 -6 -40 -4 -40 12 0 14
-3 15 -12 6 -9 -9 -14 -8 -22 3 -7 9 -37 18 -73 21 -50 6 -60 9 -47 18 17 13
9 48 -10 45 -6 -1 -19 1 -30 6 -12 5 -21 3 -27 -6 -6 -11 -2 -15 19 -17 l27
-4 -34 -14 c-48 -20 -64 -18 -58 7 7 28 -40 80 -75 82 -22 2 -26 7 -26 32 -1
17 -5 45 -11 63 -8 28 -7 32 9 32 11 0 19 9 22 25 5 26 -14 52 -57 81 -14 9
-25 25 -25 35 0 11 -5 19 -11 19 -14 0 -2 -52 14 -62 9 -5 9 -10 -1 -20 -9 -9
-12 -9 -12 5 0 14 -16 21 -41 19 -10 -1 -6 33 5 40 7 5 7 8 -2 8 -7 0 -10 5
-7 10 10 17 -5 70 -21 70 -17 0 -19 20 -1 21 6 0 1 5 -13 11 l-25 11 35 10
c19 6 41 17 48 24 7 7 18 13 23 13 5 0 9 4 9 9 0 5 -10 7 -22 3 -14 -3 -19 -2
-14 6 4 7 16 12 27 12 11 0 19 7 19 18 0 14 2 15 10 2 8 -13 10 -12 10 4 0 10
8 24 17 31 15 11 22 10 45 -7 16 -10 28 -28 28 -39 0 -10 4 -19 8 -19 4 0 6
15 4 34 -3 25 -11 37 -30 46 -26 12 -26 13 -7 21 11 4 16 8 11 8 -5 1 -1 10 9
21 12 13 14 20 6 20 -7 0 -11 6 -8 13 2 6 10 11 16 9 20 -4 11 25 -11 36 -13
6 -17 11 -10 11 6 1 12 10 12 21 0 11 4 20 10 20 5 0 7 7 4 15 -4 10 0 15 12
16 15 0 15 2 4 6 -16 6 -30 23 -30 36 0 12 28 8 33 -5 4 -10 6 -10 6 0 1 14
41 17 41 2 0 -5 5 -10 10 -10 6 0 10 9 10 19 0 20 25 35 41 25 5 -3 9 0 9 7 0
7 17 32 37 57 24 30 37 54 35 69 -3 20 1 23 26 23 17 0 38 3 46 6 15 6 15 8
-1 20 -17 13 -17 13 0 14 21 0 21 4 1 35 -9 13 -22 21 -29 18 -11 -4 -12 2 -5
29 12 41 13 38 -6 38 -13 0 -15 7 -11 34 4 28 0 40 -23 65 -21 25 -29 29 -33
17 -4 -9 -2 -18 3 -21 6 -4 10 -12 10 -18 -1 -24 -40 36 -40 60 0 22 -3 24
-24 19 -18 -4 -25 -1 -29 13 -3 12 -15 21 -33 23 -24 2 -30 8 -32 33 -4 36
-16 45 -59 45 -30 0 -49 19 -20 21 6 0 3 4 -8 8 -23 9 -47 3 -39 -10 3 -5 -2
-6 -11 -3 -12 5 -13 10 -5 20 8 9 8 18 1 33 -16 28 -15 28 32 37 23 4 44 8 47
9 3 0 26 4 52 9 34 5 53 14 67 34 11 15 21 21 21 14 0 -10 5 -10 20 -2 11 6
25 8 32 4 6 -4 18 3 27 14 9 11 33 35 55 51 32 26 35 31 18 31 -30 0 -35 15
-12 35 24 22 26 35 4 35 -14 0 -14 3 -4 15 10 12 10 15 -4 15 -9 0 -16 5 -16
12 0 6 -10 2 -22 -9 -43 -39 -69 6 -28 47 12 12 26 37 33 58 10 31 17 37 40
37 18 -1 27 4 27 15 0 9 3 11 8 5 4 -5 22 -21 41 -34 26 -18 33 -20 28 -8 -4
10 0 20 10 26 14 8 15 12 4 25 -11 13 -11 16 0 16 8 0 20 9 27 20 14 22 43 26
74 9 17 -9 25 -6 47 15 15 14 34 26 42 26 7 0 30 10 49 21 41 25 156 32 169
10 6 -10 10 -9 15 4 3 9 3 21 0 26 -3 6 5 7 22 3 19 -5 25 -4 20 5 -16 25 113
3 141 -25 12 -12 12 -14 -1 -14 -18 0 -57 -20 -68 -35 -15 -20 -8 -64 11 -75
27 -14 58 -13 64 3 3 9 9 9 28 -1 17 -9 33 -10 56 -3 17 5 34 7 36 4 3 -2 19
3 36 11 16 9 41 16 54 16 13 0 27 3 31 8 4 4 17 8 29 8 28 2 130 13 179 19 32
4 43 0 69 -25 18 -16 35 -30 40 -30 4 0 11 -9 14 -20 4 -11 11 -18 16 -15 5 4
9 -3 9 -14 0 -12 7 -21 15 -21 8 0 16 -7 16 -15 3 -28 4 -33 11 -40 4 -4 4
-13 2 -20 -3 -7 2 -24 11 -38 8 -14 17 -41 19 -61 4 -41 30 -76 58 -76 14 0
17 -5 12 -24 -5 -19 -1 -25 23 -31 15 -5 37 -9 48 -9 12 -1 34 -16 50 -34 17
-17 44 -35 61 -38 29 -6 31 -4 27 19 -3 17 2 30 20 43 22 18 24 25 20 91 -4
64 -2 72 15 77 32 10 46 58 31 100 -7 20 -17 36 -21 36 -13 0 -9 41 8 86 11
30 25 46 46 55 25 10 28 14 16 23 -23 17 -31 75 -12 93 12 12 15 32 13 84 -4
75 2 89 28 68 15 -12 16 -12 8 1 -14 23 -15 41 -3 63 9 17 8 19 -7 13 -14 -5
-16 -4 -7 7 13 15 6 28 -11 21 -8 -3 -12 12 -13 41 -1 27 -8 53 -18 64 -18 20
-21 42 -6 57 6 6 3 27 -8 57 -16 46 -16 49 1 58 9 6 17 17 17 26 0 15 -2 15
-18 0 -24 -22 -28 -21 -52 3 -11 11 -15 20 -10 20 12 0 13 27 2 32 -12 4 -23
68 -12 68 5 0 10 -9 12 -20 3 -20 4 -19 31 5 20 19 27 22 27 10 0 -8 5 -15 11
-15 6 0 9 7 6 15 -4 8 -2 17 4 20 5 4 9 3 8 -2 -3 -18 2 -33 11 -33 17 0 11
26 -10 45 -26 23 -25 35 1 35 16 0 19 3 12 13 -6 6 -16 30 -23 51 -7 22 -21
49 -31 60 -23 24 -24 45 -3 53 8 3 13 12 10 19 -6 17 8 18 36 3 32 -17 32 -3
0 37 -29 35 -33 54 -11 54 5 0 9 -6 9 -12 1 -17 35 -58 49 -58 23 0 9 30 -29
63 -26 22 -38 40 -35 49 4 10 -1 17 -14 21 -12 3 -21 10 -21 16 0 9 5 9 21 0
19 -10 20 -9 14 13 -11 37 -11 43 3 40 8 -1 11 2 8 7 -4 5 -1 21 5 34 19 41
-7 79 -55 83 -21 2 -40 5 -43 7 -7 7 -6 71 1 95 5 16 3 24 -8 28 -9 3 -16 10
-16 15 0 9 -41 54 -50 54 -3 0 -20 7 -37 15 -31 14 -37 24 -36 58 1 6 -5 12
-13 12 -17 0 -18 17 -1 23 9 4 8 8 -3 16 -13 9 -13 14 -2 32 12 19 12 20 -10
14 -18 -5 -20 -4 -8 5 13 9 12 12 -4 25 -11 8 -14 15 -8 15 7 0 12 9 12 21 0
15 -5 19 -15 15 -8 -3 -15 -1 -15 3 0 5 8 12 18 16 15 6 15 8 1 18 -8 7 -18
20 -22 31 -4 11 -13 16 -22 12 -12 -4 -13 -2 -5 13 7 14 6 19 -3 18 -34 -1
-44 6 -56 38 -7 19 -17 35 -23 35 -14 0 -48 40 -48 57 0 7 6 13 14 13 30 0 26
20 -4 27 -32 6 -53 34 -32 41 7 2 12 10 12 18 0 8 5 14 11 14 6 0 9 6 6 14 -3
7 -1 18 4 23 5 5 18 26 28 48 11 22 20 33 21 25 0 -10 11 -15 31 -16 22 -1 29
3 25 13 -4 8 4 17 19 23 31 12 33 30 4 30 -21 0 -21 1 5 25 22 20 25 28 16 44
-14 26 -13 31 6 31 8 0 23 7 31 16 13 13 18 13 25 2 5 -8 6 -3 2 14 -5 21 0
32 20 51 16 15 24 31 20 40 -4 12 0 14 18 11 22 -5 22 -5 4 10 -33 27 -14 32
77 21 52 -6 54 -4 32 29 -15 23 -15 24 20 30 22 4 35 13 35 22 0 8 5 12 10 9
6 -3 10 -1 10 5 0 7 12 9 36 4 25 -5 35 -3 30 4 -10 16 4 41 20 35 12 -4 14 1
9 27 -5 26 -1 36 15 47 15 11 20 22 16 38 -5 18 -1 24 16 28 12 4 28 1 35 -5
10 -8 13 -5 13 16 0 15 6 26 14 26 18 0 27 35 13 49 -8 8 -7 11 3 11 13 0 13
2 1 9 -9 6 -12 22 -9 51 l4 42 -33 -4 c-23 -3 -34 1 -37 12 -3 11 -4 11 -5 -3
-1 -14 -6 -17 -23 -11 -13 4 -42 7 -66 6 -23 0 -48 5 -55 12 -21 21 -67 24
-108 8 -29 -11 -43 -12 -51 -4 -8 8 -17 8 -30 1 -14 -7 -18 -6 -18 5 0 8 -8
13 -17 11 -10 -1 -17 -8 -15 -14 2 -12 -30 -15 -41 -4 -4 3 -2 11 3 18 13 16
-20 31 -95 42 -58 8 -60 9 -62 39 -2 27 1 33 25 38 99 23 152 41 152 51 0 7 8
12 17 11 29 -2 27 59 -4 112 -29 50 -42 64 -55 56 -4 -3 -13 4 -19 15 -7 10
-18 17 -25 14 -8 -3 -11 2 -7 16 3 11 14 23 24 26 10 4 19 12 19 19 0 14 80
32 153 35 9 1 17 8 17 16 0 8 9 15 19 15 29 0 112 38 131 61 10 11 34 21 56
23 44 4 74 15 74 25 0 13 82 12 97 -1 11 -9 16 -9 23 2 11 18 66 -8 114 -55
38 -37 51 -42 61 -25 3 6 13 10 21 10 8 0 13 -4 10 -9 -7 -10 49 -25 62 -17 5
3 34 8 65 10 41 4 60 2 71 -9 8 -8 19 -15 25 -15 6 0 11 -4 11 -9 0 -12 39
-21 45 -11 3 5 1 11 -5 15 -6 4 -7 11 -4 17 4 6 -1 8 -14 4 -14 -5 -24 -1 -30
9 -5 9 -12 16 -15 16 -17 -3 -87 53 -87 69 0 22 -21 40 -97 81 -35 19 -63 38
-63 43 0 5 -8 15 -17 22 -17 13 -17 13 0 14 9 0 17 -4 17 -10 0 -5 9 -10 20
-10 12 0 35 -10 53 -22 76 -52 87 -58 101 -58 30 0 27 21 -4 32 l-32 11 31 19
c17 11 31 23 31 27 0 13 -46 51 -61 51 -9 0 -28 14 -45 31 -40 43 -92 75 -137
83 -20 4 -45 15 -55 25 -9 10 -42 24 -72 31 -30 7 -66 21 -79 31 -13 11 -32
19 -41 19 -10 0 -20 6 -23 14 -3 7 -26 16 -51 18 -27 3 -63 17 -86 33 -21 15
-44 24 -49 20 -6 -3 -14 1 -17 9 -9 24 -75 60 -104 58 -15 -1 -37 7 -50 18
-13 11 -29 20 -37 20 -16 0 -17 16 -2 26 18 11 190 12 259 2 75 -12 187 -45
196 -59 3 -5 24 -19 47 -31 47 -23 113 -72 168 -123 41 -38 74 -51 85 -34 4 8
3 9 -4 5 -12 -7 -16 5 -13 31 2 17 -40 73 -54 73 -6 0 -27 12 -46 26 -19 14
-50 32 -69 40 -19 9 -46 22 -60 29 -75 40 -115 56 -185 75 -117 32 -153 40
-260 54 -66 9 -144 15 -173 15 -65 -2 -82 11 -53 40 11 11 32 44 45 71 23 48
23 51 5 45 -11 -4 -19 -2 -19 4 0 12 10 14 54 11 18 -1 26 2 22 9 -4 6 -2 11
3 11 17 0 13 20 -4 27 -9 3 -24 -2 -34 -11 -10 -9 -20 -16 -23 -16 -10 0 -1
39 12 55 13 15 11 20 -15 42 -25 21 -27 24 -9 20 34 -7 49 8 46 45 -2 19 2 47
8 62 8 23 8 31 -2 38 -9 5 -10 10 -2 16 17 12 23 39 11 51 -8 8 -5 11 13 11
17 0 21 3 14 10 -7 7 -19 8 -37 1 -17 -7 -28 -7 -32 -1 -4 6 -1 10 4 10 6 0
11 7 11 15 0 8 6 15 13 16 6 0 20 2 30 4 9 2 17 -1 17 -5 0 -11 29 -40 40 -40
12 0 18 49 6 54 -6 2 0 5 14 5 22 1 25 -3 24 -37 -1 -45 4 -56 19 -44 20 16
67 23 67 11 0 -8 4 -8 15 1 8 7 15 9 15 4 0 -5 5 -1 11 9 5 9 17 17 24 17 8 0
15 3 15 8 0 4 10 12 23 18 79 40 78 40 242 33 198 -8 253 -18 302 -52 45 -31
56 -33 73 -13 14 18 40 10 40 -13 1 -14 2 -14 11 2 5 9 17 17 25 17 8 0 12 5
9 10 -3 6 -20 10 -36 10 -41 0 -68 16 -79 46 -6 14 -25 31 -42 39 -35 14 -53
11 -28 -5 13 -8 12 -10 -2 -10 -10 0 -35 17 -56 38 -59 59 -99 84 -129 80 -16
-2 -33 3 -41 12 -10 12 -12 8 -10 -25 3 -36 6 -40 30 -40 15 0 39 -11 55 -27
15 -15 42 -32 58 -39 43 -17 9 -24 -54 -10 -51 11 -290 8 -376 -4 l-50 -7 30
17 c18 10 41 14 57 11 15 -3 30 -1 33 4 4 6 -12 10 -39 10 -25 0 -47 -4 -50
-9 -3 -5 -15 -11 -26 -14 -33 -9 -23 18 18 46 31 21 45 25 83 20 31 -4 55 0
77 11 21 11 33 12 37 5 6 -9 38 -7 88 8 23 6 13 17 -16 18 -12 0 -23 7 -25 17
-2 12 2 15 17 11 12 -3 21 -1 21 5 0 11 -38 23 -87 27 -18 2 -42 10 -55 19
-12 9 -34 16 -49 16 -14 0 -28 3 -32 6 -3 4 -25 8 -49 10 -23 1 -44 7 -46 13
-2 6 -12 11 -22 11 -9 0 -23 7 -30 15 -7 8 -20 15 -29 15 -9 0 -25 7 -35 15
-21 16 -21 16 37 20 32 2 50 15 21 15 -16 0 -17 2 -4 10 16 11 18 10 -40 16
-14 1 -65 10 -115 19 -144 27 -165 29 -165 17 0 -7 11 -14 25 -18 39 -10 30
-24 -15 -24 -22 0 -40 -5 -40 -11 0 -12 -202 -10 -222 3 -8 5 -1 8 19 8 39 0
52 17 21 29 -14 5 -41 3 -71 -5 -38 -10 -48 -10 -44 0 3 8 -5 11 -28 8 -23 -3
-32 -8 -29 -17 8 -20 -97 -31 -136 -15 -16 7 -35 10 -42 7 -7 -2 -21 2 -30 11
-14 12 -21 12 -33 2 -8 -7 -32 -10 -55 -8 -22 2 -40 0 -40 -5 0 -4 -5 -5 -10
-2 -6 4 -17 1 -25 -5 -8 -7 -21 -10 -29 -7 -10 4 -13 1 -10 -8 4 -11 -7 -13
-54 -12 -33 1 -56 5 -50 8 5 3 2 9 -7 13 -26 10 -32 7 -38 -13 -5 -21 -42 -48
-72 -53 -17 -3 -20 3 -21 42 0 49 -10 74 -25 65 -5 -4 -9 8 -9 25 0 30 -2 31
-37 28 -34 -3 -38 -6 -36 -28 1 -14 -2 -37 -7 -52 -6 -18 -5 -29 3 -32 9 -5 9
-7 0 -12 -20 -9 -15 -22 9 -30 20 -6 68 -47 68 -59 0 -14 -29 -3 -34 13 -4 11
-18 25 -31 32 -21 11 -27 11 -38 0 -10 -10 -9 -12 4 -7 14 5 15 1 3 -31 -13
-38 -9 -107 8 -129 6 -7 8 -19 5 -27 -3 -7 -1 -18 5 -24 7 -7 3 -20 -13 -41
-18 -25 -21 -36 -13 -49 17 -26 49 -22 48 6 0 12 3 22 7 22 3 0 9 -10 13 -22
5 -19 8 -21 16 -8 9 14 14 7 11 -13 -1 -4 6 -10 14 -13 8 -4 15 -12 15 -20 0
-7 10 -18 21 -25 27 -14 141 -7 147 9 4 14 41 16 61 3 8 -5 11 -16 8 -25 -5
-11 -1 -16 12 -16 11 0 26 -3 34 -6 11 -4 19 5 27 30 7 21 16 33 22 30 7 -4 8
-2 4 5 -9 14 2 51 15 51 5 0 7 -11 5 -24 -6 -32 2 -38 28 -21 12 8 58 16 104
18 78 4 83 3 79 -14 -4 -15 -2 -17 13 -9 24 13 60 13 60 0 0 -7 6 -7 18 -1 14
7 30 5 60 -11 23 -11 42 -24 42 -28 0 -5 10 -10 23 -12 36 -5 31 -57 -9 -78
-41 -24 -78 -35 -70 -22 12 20 -11 21 -48 2 -21 -10 -51 -22 -66 -25 -16 -3
-31 -12 -33 -19 -3 -8 -17 -12 -31 -11 -25 3 -25 2 -9 -21 16 -25 9 -31 -16
-15 -10 7 -23 3 -42 -12 -87 -69 -164 -109 -195 -101 -14 4 -23 0 -28 -11 -3
-9 -2 -13 4 -10 6 3 10 1 10 -4 0 -6 -4 -11 -9 -11 -4 0 -21 -12 -36 -26 -15
-14 -33 -23 -40 -20 -20 7 -30 -86 -10 -100 22 -16 19 -26 -6 -19 -29 10 -65
-36 -73 -94 -4 -25 -13 -55 -21 -65 -8 -10 -12 -23 -8 -29 3 -5 -4 -17 -16
-27 -15 -10 -24 -30 -26 -54 -2 -25 -14 -49 -32 -68 -22 -23 -27 -37 -26 -70
1 -22 8 -47 15 -55 9 -11 14 -59 15 -152 1 -75 3 -144 3 -154 1 -9 -6 -24 -14
-32 -15 -15 -12 -38 7 -62 6 -8 3 -18 -8 -29 -14 -14 -16 -27 -9 -68 4 -28 8
-64 8 -81 1 -19 8 -33 19 -37 24 -10 33 -38 16 -49 -14 -8 -12 -10 14 -13 7
-1 11 -13 9 -34 -3 -28 0 -33 15 -30 10 2 17 -2 16 -9 -2 -7 7 -17 18 -24 17
-8 20 -8 14 1 -4 7 4 4 19 -5 14 -10 26 -20 26 -24 0 -3 11 -11 25 -17 15 -8
23 -8 22 -2 -1 6 4 13 12 15 9 4 11 0 7 -14 -8 -25 10 -76 24 -68 6 4 8 11 5
16 -4 5 -2 9 4 9 17 0 24 -22 10 -32 -10 -7 -7 -8 11 -3 69 17 70 17 70 -10 0
-18 5 -25 19 -25 10 0 21 -7 25 -15 3 -9 0 -15 -10 -15 -12 0 -13 -4 -3 -22
10 -19 13 -20 23 -6 7 10 26 16 48 15 33 -1 37 -4 43 -34 7 -37 8 -38 37 -22
15 8 19 8 14 0 -4 -6 0 -11 11 -11 17 -1 17 -2 -1 -15 -18 -13 -15 -20 6 -16
5 0 17 -8 28 -19 11 -11 15 -20 9 -20 -5 0 -7 -4 -4 -10 10 -17 -5 -32 -20
-20 -10 8 -17 6 -29 -11 -12 -18 -25 -22 -68 -23 -41 -1 -53 -5 -56 -18 -2
-12 6 -19 32 -23 19 -4 40 -13 46 -20 5 -7 21 -10 35 -7 17 3 27 -1 31 -12 9
-25 26 -19 19 7 l-6 22 20 -23 c11 -12 21 -28 24 -35 4 -12 13 -10 81 18 17 7
17 6 5 -16 -7 -13 -12 -27 -11 -31 3 -12 -26 -10 -33 2 -11 18 -22 11 -20 -12
1 -15 9 -24 23 -26 12 -2 22 -8 22 -14 0 -9 -21 -7 -72 8 -15 4 -18 -1 -18
-28 0 -19 3 -38 8 -44 4 -5 3 -6 -3 -1 -15 12 -30 8 -17 -5 15 -15 16 -68 1
-68 -13 0 -3 -93 13 -123 13 -26 -15 -67 -45 -65 -36 2 -118 -42 -113 -61 3
-9 8 -41 11 -70 4 -31 20 -77 36 -105 67 -117 129 -257 143 -323 15 -73 10
-168 -13 -226 -20 -51 -16 -57 34 -51 32 3 55 -1 86 -15 25 -12 47 -17 53 -12
18 14 46 9 46 -9 0 -9 18 -34 40 -55 22 -21 40 -45 40 -52 0 -17 26 -17 34 0
3 6 5 -3 3 -20 -3 -29 -1 -33 20 -33 13 0 23 -6 23 -13 0 -7 13 -28 29 -46 17
-19 33 -46 36 -62 4 -17 18 -36 35 -46 16 -9 34 -27 41 -39 6 -13 17 -21 22
-17 6 3 7 2 4 -4 -4 -5 3 -20 14 -32 12 -12 18 -29 15 -37 -3 -8 0 -14 8 -14
21 0 28 -30 14 -61 -14 -31 -27 -36 -46 -17 -9 9 -15 9 -24 0 -9 -9 -9 -12 0
-12 22 0 132 -186 132 -225 0 -11 7 -30 15 -41 17 -23 20 -70 4 -80 -6 -3 -15
-1 -19 6 -14 23 -39 4 -35 -27 11 -90 8 -121 -13 -157 -12 -20 -22 -45 -22
-55 0 -10 -5 -32 -11 -50 -11 -30 -13 -31 -72 -31 -34 0 -93 -10 -132 -21 -92
-26 -161 -34 -188 -21 -12 6 -38 13 -58 16 -20 4 -44 15 -54 26 -15 17 -63 34
-81 30 -4 -1 -10 3 -14 9 -9 16 -42 2 -36 -15 6 -16 -3 -18 -24 -4 -15 9 -50
-18 -50 -40 0 -6 -4 -8 -10 -5 -5 3 -10 1 -10 -4 0 -6 -18 -11 -39 -11 -22 0
-43 -4 -46 -10 -7 -12 -45 -14 -45 -2 0 12 -43 13 -51 1 -7 -13 -90 -20 -104
-10 -5 4 -21 4 -35 0 l-25 -7 26 -1 c15 -1 29 -8 33 -16 4 -12 0 -14 -22 -8
-14 3 -32 6 -39 6 -7 0 -10 4 -7 8 10 16 -47 21 -123 11 -80 -11 -103 -5 -103
24 0 8 -5 14 -11 14 -5 0 -9 -10 -7 -22 2 -11 -3 -23 -11 -26 -8 -2 -11 0 -8
5 4 6 -3 8 -16 6 -21 -4 -22 -1 -22 64 1 37 -3 81 -7 96 -6 25 -3 31 22 45 23
13 30 24 30 47 0 36 -14 60 -29 51 -22 -14 -33 5 -17 29 l15 22 -62 -2 c-69
-2 -177 -31 -177 -47 0 -9 -108 -3 -119 7 -2 2 6 16 16 32 11 15 23 36 26 47
6 14 10 16 21 7 15 -13 32 1 22 18 -8 12 13 28 47 36 15 4 27 12 27 19 0 6 5
4 10 -4 5 -8 10 -10 10 -4 0 11 54 39 75 39 6 0 11 17 13 38 2 23 8 37 17 37
19 0 30 21 15 30 -8 5 -9 10 -1 14 8 5 8 12 0 24 -9 14 -4 34 26 95 27 57 35
85 30 106 -4 19 -1 34 9 44 18 18 21 72 6 82 -6 4 -17 2 -25 -5 -11 -9 -13 -7
-10 7 2 10 4 23 4 29 1 6 12 23 26 39 15 15 24 32 23 37 -2 6 -33 26 -68 45
-66 36 -162 54 -175 33 -3 -5 -20 -10 -37 -10 -16 0 -42 -8 -56 -19 -15 -10
-38 -22 -51 -26 -27 -8 -103 13 -95 26 3 5 -2 9 -10 9 -10 0 -16 9 -16 26 0
14 -4 23 -10 19 -5 -3 -6 -13 -3 -22 5 -13 3 -13 -20 2 -15 9 -27 21 -27 26 0
18 25 65 48 91 21 23 23 30 12 43 -9 11 -9 15 -1 15 14 0 10 41 -8 84 -6 16
-8 32 -4 35 14 11 12 43 -2 37 -13 -5 -25 16 -31 53 -2 7 -7 18 -13 24 -17 17
-13 27 9 27 13 0 20 7 20 20 0 10 8 24 18 29 16 10 16 10 0 11 -10 0 -18 -4
-18 -10 0 -5 -7 -10 -15 -10 -20 0 -19 19 1 27 15 5 15 8 2 17 -31 23 -39 137
-12 167 9 10 16 33 17 51 1 28 5 34 21 34 15 -1 20 4 18 17 -2 10 3 17 12 17
10 0 17 15 22 45 3 25 10 45 14 45 9 0 20 24 26 60 6 29 22 50 38 50 13 0 46
35 46 50 0 5 -8 14 -17 19 -16 9 -15 11 7 12 42 3 44 4 66 19 21 15 21 16 4
38 -14 17 -25 21 -43 17 -17 -5 -26 -2 -30 9 -4 9 -1 16 6 16 7 0 4 5 -6 11
-10 6 -14 15 -10 22 4 8 1 7 -9 -1 -17 -14 -16 -6 8 60 6 17 35 30 69 32 15 1
20 8 19 29 0 16 5 27 13 27 7 0 13 -5 13 -11 0 -5 5 -7 10 -4 7 4 7 13 0 26
-6 11 -15 17 -21 14 -5 -4 -9 -1 -9 4 0 6 0 13 0 16 0 3 -9 14 -20 25 -12 12
-18 26 -13 33 5 8 9 3 13 -13 5 -23 7 -23 13 -6 8 20 -6 36 -32 36 -8 0 -11 3
-8 7 4 3 2 12 -4 20 -9 10 -7 13 6 13 12 0 15 5 11 16 -3 9 1 25 9 37 20 29
19 49 -5 74 -11 12 -17 30 -15 43 2 12 -3 40 -12 62 -13 33 -14 41 -3 48 8 5
15 24 16 44 3 29 0 36 -15 36 -16 0 -18 6 -15 33 13 99 10 182 -7 171 -5 -3
-9 6 -9 20 0 27 -14 35 -24 14 -3 -7 -3 15 1 50 4 43 2 62 -6 62 -6 0 -11 13
-11 29 0 25 -4 30 -27 33 -25 3 -29 8 -34 48 -4 30 -2 51 7 64 14 21 8 46 -12
46 -8 0 -14 7 -14 15 0 8 -6 15 -12 15 -8 0 -9 3 -3 8 6 4 10 29 10 55 1 27 6
52 13 56 16 9 5 41 -14 41 -20 0 -19 76 1 84 18 7 20 27 3 24 -8 -2 -12 6 -10
20 3 17 -1 22 -14 20 -9 -2 -19 3 -21 10 -3 6 2 12 10 12 11 0 15 11 15 36 0
34 -1 35 -19 18 -17 -16 -19 -16 -19 -1 0 10 4 17 9 17 5 0 11 8 14 18 4 20
-23 72 -38 72 -5 0 -15 11 -21 24 -9 20 -8 28 5 41 13 14 14 16 1 13 -8 -2
-14 3 -13 10 2 6 -3 12 -11 12 -7 0 -13 8 -13 18 0 40 -4 53 -13 47 -5 -3 -10
-1 -10 5 0 6 6 10 13 9 23 -3 37 1 37 10 0 5 -13 8 -30 6 -29 -4 -55 15 -32
23 14 4 16 42 3 42 -5 0 -5 15 -1 34 4 19 5 37 3 40 -3 3 -1 19 5 35 7 19 7
33 1 36 -5 4 -9 15 -9 26 0 19 1 19 16 5 8 -9 30 -16 47 -15 30 0 31 1 10 11
-23 11 -31 28 -13 28 6 0 10 -4 10 -10 0 -5 7 -10 15 -10 8 0 15 5 15 11 0 5
5 7 10 4 18 -11 11 21 -9 39 -12 11 -16 25 -13 43 3 17 0 29 -12 35 -9 5 -16
19 -16 31 0 18 -2 19 -10 7 -8 -13 -10 -13 -10 2 0 11 -5 15 -15 12 -11 -5
-15 1 -15 23 0 33 -16 54 -36 46 -10 -4 -14 3 -14 23 1 28 1 28 17 9 15 -19
15 -19 9 13 -3 18 -15 42 -26 54 l-20 22 0 -22 c0 -12 5 -22 11 -22 5 0 8 -4
4 -10 -3 -5 -14 -1 -26 11 -12 12 -28 18 -44 15 -24 -5 -65 25 -65 46 0 4 -9
8 -20 8 -14 0 -20 6 -18 16 4 22 -41 39 -48 19 -4 -8 -16 -14 -28 -14 -16 1
-17 2 -3 6 19 5 24 23 6 23 -7 0 -20 10 -31 22 -15 17 -21 19 -27 9 -6 -10
-10 -9 -14 4 -5 12 -11 14 -26 6 -14 -8 -21 -7 -24 2 -3 8 -10 6 -21 -8 -13
-17 -15 -18 -16 -3 0 10 -7 15 -17 13 -10 -1 -23 2 -29 7 -7 5 -16 8 -20 7
-22 -4 -35 2 -28 13 4 7 3 8 -4 4 -18 -11 -14 -23 9 -29 22 -6 22 -28 -1 -35
-9 -3 -11 1 -7 12 4 10 3 15 -3 11 -6 -3 -10 -16 -10 -27 0 -19 -13 -18 -16 0
-7 32 -19 52 -31 52 -10 0 -13 6 -9 16 4 10 1 14 -6 11 -7 -2 -13 -13 -12 -25
0 -13 -4 -18 -13 -15 -7 3 -13 14 -13 24 0 10 -4 19 -10 19 -5 0 -10 -4 -10
-10 0 -5 -5 -10 -11 -10 -8 0 -8 4 -2 13 9 11 13 34 16 85 1 18 6 22 20 18 30
-7 50 3 36 20 -20 24 10 96 36 87 11 -3 13 9 15 79 1 38 26 60 37 32 8 -21 53
-38 67 -24 5 5 22 10 38 10 15 0 31 7 36 17 10 17 0 70 -21 111 -9 19 -8 25 3
33 13 8 12 12 -5 25 l-20 16 20 -4 c12 -2 21 -13 23 -26 3 -20 7 -21 45 -16
23 4 48 12 56 18 11 8 13 8 8 -1 -5 -9 0 -9 23 0 19 7 28 17 25 25 -4 10 0 12
11 8 8 -3 18 -6 20 -6 2 0 4 -8 4 -17 0 -15 2 -15 9 -4 8 12 12 12 25 -2 18
-18 21 -37 6 -37 -5 0 -10 -4 -10 -10 0 -5 16 -10 36 -10 25 0 33 -3 28 -12
-11 -17 -12 -48 -3 -48 10 0 34 79 31 103 -1 9 2 17 7 17 16 0 18 -34 3 -52
-13 -16 -13 -18 2 -24 13 -5 15 -9 5 -15 -14 -8 -21 -39 -9 -39 15 0 5 -62
-13 -74 -22 -17 -11 -27 19 -16 20 8 25 5 38 -21 13 -26 13 -31 0 -36 -7 -3
-14 -12 -14 -20 0 -11 5 -8 18 8 14 16 24 20 38 14 10 -5 21 -9 24 -10 3 -1
14 -6 24 -10 13 -6 21 -5 24 3 2 7 8 12 13 12 6 0 7 -5 3 -11 -4 -7 -1 -10 7
-7 8 3 14 18 14 34 1 35 13 64 28 64 7 0 7 -4 -1 -12 -12 -12 -17 -68 -6 -68
4 0 12 7 19 17 11 14 13 13 17 -10 4 -19 1 -27 -8 -27 -8 0 -14 -5 -14 -11 0
-7 -10 -9 -25 -7 -25 5 -29 -2 -28 -40 1 -8 -5 -11 -14 -7 -13 4 -14 3 -3 -10
14 -17 30 -11 30 10 0 13 29 35 44 35 3 0 6 -20 6 -44 0 -34 -4 -46 -17 -49
-11 -3 -7 -5 10 -6 20 -1 26 3 21 12 -4 6 2 4 14 -7 18 -16 19 -20 7 -32 -18
-18 -26 -18 -19 1 4 8 1 15 -6 15 -6 0 -8 -4 -5 -10 3 -5 1 -10 -5 -10 -7 0
-8 -6 0 -19 13 -26 13 -31 -5 -31 -8 0 -15 -4 -15 -10 0 -13 17 -13 25 -1 3 5
21 8 40 6 36 -3 43 3 24 22 -12 12 -3 53 12 53 5 0 9 7 9 16 0 8 5 12 10 9 6
-3 10 1 10 9 0 8 -6 18 -12 22 -7 4 -10 4 -6 0 6 -8 -21 -46 -33 -46 -15 0
-16 39 -1 45 8 3 12 8 9 12 -4 3 -18 -2 -32 -11 -25 -17 -32 -12 -16 12 5 9
23 13 51 11 45 -4 70 16 70 53 0 20 -12 23 -40 8 -10 -6 -21 -6 -24 -2 -3 5
11 15 30 22 22 9 37 23 41 38 3 13 11 21 18 18 20 -7 25 19 9 43 -14 20 -12
25 11 22 6 -1 0 7 -12 18 -13 11 -23 24 -23 30 0 6 -4 11 -10 11 -5 0 -10 5
-10 10 0 6 12 10 27 10 24 0 25 1 9 13 -16 12 -16 14 3 31 13 12 21 14 21 7 0
-8 5 -7 16 3 20 21 23 20 33 -6 7 -20 5 -24 -18 -29 -18 -5 -10 -6 22 -6 40 1
45 3 32 14 -17 12 -11 38 6 27 6 -3 7 4 3 20 -4 17 -1 31 10 41 8 9 13 22 10
30 -4 8 -1 15 6 15 6 0 8 5 4 11 -4 7 -1 10 7 7 8 -3 15 -9 15 -14 6 -37 18
-55 35 -51 16 4 18 1 13 -19 -4 -15 -2 -24 6 -24 7 0 9 -8 5 -20 -8 -24 10
-50 33 -50 12 0 10 5 -8 22 l-23 21 24 9 c22 8 22 10 7 19 -10 6 -18 18 -18
28 0 11 -7 21 -15 25 -8 3 -15 14 -15 25 0 11 -5 23 -10 26 -6 4 -8 10 -5 15
3 4 -3 7 -13 6 -13 -1 -17 7 -18 35 0 19 -3 40 -7 46 -4 6 3 8 19 5 15 -3 29
1 34 8 6 10 14 8 31 -9 13 -12 32 -20 41 -17 13 3 18 -2 18 -15 0 -19 -11 -25
-24 -12 -23 24 -78 -9 -61 -37 10 -16 28 -12 22 5 -8 19 13 31 24 14 15 -25
10 -39 -16 -39 -26 0 -33 -14 -14 -26 6 -3 15 0 20 7 8 12 11 12 19 -1 5 -8
10 -21 10 -27 0 -15 17 -18 22 -4 5 13 48 24 48 12 0 -6 -7 -11 -15 -11 -8 0
-15 -4 -15 -10 0 -5 13 -10 29 -10 26 0 30 5 42 48 7 26 12 57 11 70 -2 12 1
22 6 22 5 0 8 -13 7 -30 -1 -19 3 -31 12 -31 34 -4 38 -3 36 9 -2 6 2 12 7 12
6 0 10 7 10 15 0 11 -5 12 -24 6 -21 -8 -23 -7 -20 15 3 30 -22 46 -47 31 -10
-6 -22 -7 -26 -3 -4 5 -2 11 5 13 17 7 15 39 -5 70 -14 21 -14 25 -3 21 8 -2
25 -23 38 -46 13 -23 29 -42 36 -42 7 0 18 -10 24 -22 6 -13 11 -17 11 -9 1 8
-9 25 -21 38 -17 18 -19 26 -10 35 15 15 16 48 1 48 -6 0 -9 -9 -6 -19 8 -31
-19 -32 -34 -3 -8 15 -22 34 -31 43 -26 24 -22 29 14 19 31 -9 31 -9 11 9 -11
11 -31 21 -44 23 -23 3 -22 4 9 18 26 12 32 19 27 36 -4 17 1 23 21 28 13 4
29 4 34 1 8 -5 50 46 50 62 0 4 -5 1 -10 -7 -8 -13 -10 -12 -10 3 0 10 -5 15
-11 12 -6 -4 -8 -13 -5 -20 4 -11 -13 -25 -29 -25 -11 0 -12 33 -2 53 10 19
17 22 40 16 28 -8 35 -1 16 18 -8 8 -8 13 1 18 6 4 17 -1 24 -11 10 -12 15
-14 20 -5 5 7 1 18 -7 24 -8 7 -19 21 -25 32 -10 17 -11 18 -12 3 0 -10 -5
-18 -11 -18 -6 0 -8 8 -4 19 5 18 -21 39 -33 26 -3 -3 0 -5 6 -5 18 0 14 -14
-10 -40 l-22 -23 -8 25 c-7 19 -14 25 -28 21 -14 -4 -20 0 -20 11 0 9 5 16 10
16 6 0 10 11 10 25 0 14 5 25 11 25 8 0 9 4 0 13 -6 8 -7 18 -3 22 4 5 -1 5
-11 2 -15 -6 -17 -3 -12 14 6 17 3 20 -12 17 -11 -2 -18 -12 -17 -26 1 -20 -3
-22 -24 -17 -16 4 -28 1 -33 -7 -5 -8 -7 1 -5 22 2 19 1 27 -1 18 -2 -10 -11
-18 -19 -18 -8 0 -17 -13 -20 -30 -4 -16 -13 -30 -21 -30 -7 0 -16 -7 -19 -15
-4 -8 -14 -15 -23 -15 -14 0 -14 2 -1 10 13 8 13 10 -2 10 -23 0 -31 16 -19
39 13 23 -4 33 -31 19 -14 -6 -16 -5 -12 7 4 8 10 15 16 15 5 0 8 6 7 13 -5
38 3 56 28 64 26 9 31 25 33 103 1 24 1 24 15 6 15 -20 20 -10 9 18 -3 9 -10
13 -15 10 -5 -3 -17 0 -26 5 -15 8 -15 11 -3 12 8 1 18 1 23 0 18 -3 4 21 -18
29 -30 11 -33 30 -5 30 13 0 17 5 14 14 -4 11 -12 12 -35 4 -16 -5 -29 -14
-29 -19 0 -5 -11 -9 -25 -9 -25 0 -37 20 -12 20 7 1 4 6 -7 15 -10 7 -15 18
-11 24 3 7 -3 11 -15 11 -13 0 -20 5 -17 13 2 6 18 12 35 12 37 0 37 1 17 21
-10 10 -13 26 -10 45 4 24 2 29 -14 29 -13 0 -18 -7 -18 -25 0 -33 -7 -39 -30
-26 -17 10 -17 10 2 11 18 1 19 1 3 11 -11 6 -18 22 -18 39 0 19 6 31 18 34
24 8 55 1 60 -12 2 -7 10 -12 17 -12 7 0 16 -8 18 -17 4 -17 5 -17 6 0 0 9 8
17 16 17 8 0 15 4 15 10 0 5 -6 7 -14 4 -8 -3 -16 3 -19 15 -3 12 0 21 6 21 8
0 7 4 -1 12 -17 17 -16 62 1 52 7 -5 7 -1 -2 10 -8 10 -23 15 -33 13 -20 -6
-25 18 -5 26 9 4 8 8 -3 16 -13 9 -13 11 3 11 9 0 17 4 17 9 0 5 3 17 7 26 5
14 2 16 -15 10 -25 -7 -31 12 -7 21 23 9 18 26 -5 19 -14 -5 -20 -2 -20 9 0
18 -8 20 -28 8 -7 -5 -10 -16 -6 -25 3 -9 9 -15 13 -13 4 3 6 -21 6 -52 -3
-84 -4 -92 -17 -92 -6 0 -8 3 -5 6 3 4 0 16 -8 28 -19 27 -19 47 0 40 9 -4 15
0 15 10 0 10 -7 15 -19 13 -32 -5 -52 -29 -49 -57 3 -30 -36 -90 -49 -76 -4 5
-3 11 4 13 7 2 9 11 6 19 -3 7 1 16 8 19 8 3 15 19 15 36 1 17 7 35 15 40 10
7 5 8 -15 5 l-29 -5 32 31 c17 17 31 36 31 43 0 7 9 15 20 18 13 3 20 14 20
30 0 14 5 29 10 32 6 4 7 11 4 17 -4 7 0 7 13 0 13 -7 24 -7 34 0 11 8 11 9
-3 4 -12 -3 -18 0 -18 9 0 8 4 15 10 15 5 0 13 15 18 32 11 43 57 63 78 33 13
-18 14 -18 14 7 0 14 -7 28 -15 32 -8 3 -15 10 -15 16 0 6 8 5 21 -2 17 -10
23 -10 26 0 3 6 11 12 19 12 9 0 12 -5 8 -11 -4 -8 0 -8 15 0 14 8 21 8 21 1
0 -5 5 -10 11 -10 6 0 9 8 7 18 -2 9 -11 16 -19 14 -10 -2 -9 2 4 15 15 16 19
16 27 3 11 -17 25 -6 33 25 4 16 5 15 6 -6 0 -14 10 -34 21 -44 24 -21 28 -60
5 -52 -8 4 -17 2 -20 -3 -4 -6 7 -10 24 -10 19 0 31 5 31 13 0 9 14 14 41 15
36 2 40 0 29 -13 -7 -8 -16 -13 -20 -10 -14 9 -41 -7 -36 -21 3 -7 1 -16 -5
-19 -5 -4 -7 -11 -3 -16 3 -5 10 -7 15 -4 21 13 -5 -40 -31 -63 -13 -12 -13
-13 3 -8 10 3 23 6 29 6 6 0 8 7 4 15 -5 13 4 19 25 17 3 -1 6 12 7 29 0 16
-4 27 -9 24 -5 -4 -9 -1 -9 4 0 17 30 13 37 -5 5 -13 8 -13 15 -2 9 12 4 -15
-9 -48 -2 -6 2 -14 10 -17 9 -3 14 1 13 11 -1 12 6 16 21 15 17 -2 21 1 16 13
-3 9 0 19 7 24 14 9 17 47 5 74 -7 16 -5 18 14 13 20 -5 22 -3 16 20 -5 23 -4
25 9 14 14 -12 16 -10 16 8 0 11 -4 21 -10 21 -18 0 -10 17 13 27 13 6 30 7
37 3 7 -4 19 -6 27 -3 7 3 19 0 27 -6 10 -8 16 -8 26 4 14 17 40 20 40 5 0
-18 -34 -50 -41 -39 -10 17 -16 -22 -8 -56 4 -16 7 -22 8 -12 0 9 6 17 11 17
6 0 10 9 10 21 0 11 7 27 15 35 8 8 18 22 23 31 7 12 13 13 31 4 15 -8 21 -9
21 -1 0 6 4 9 10 5 5 -3 8 -11 6 -18 -1 -7 -1 -9 1 -5 3 4 20 -4 39 -18 19
-15 40 -24 50 -20 22 8 8 25 -16 19 -11 -3 -20 0 -20 6 0 6 7 11 15 11 9 0 20
11 25 25 5 14 14 25 20 25 6 0 8 5 5 10 -3 6 -15 10 -26 10 -10 0 -19 7 -19
15 0 8 5 15 10 15 6 0 10 -5 10 -11 0 -25 16 3 18 32 1 18 10 38 20 45 14 11
15 15 3 23 -9 6 -10 11 -2 15 18 12 32 -4 25 -27 -5 -17 2 -13 30 16 20 21 36
43 36 49 0 6 -9 -1 -21 -16 -11 -14 -24 -24 -29 -21 -14 9 1 43 22 48 11 3 22
15 25 26 7 26 19 27 35 1 13 -20 48 -28 48 -10 0 5 -7 7 -15 4 -11 -4 -13 -2
-9 9 3 9 16 14 32 13 15 0 28 4 30 9 1 6 -7 11 -18 11 -28 2 -38 14 -12 14 26
0 27 6 8 43 -12 22 -12 27 -1 27 7 0 15 -6 18 -12 4 -14 77 -18 77 -5 0 4 -11
7 -24 7 -14 0 -28 5 -31 10 -4 6 6 10 24 10 16 0 36 3 45 6 11 4 16 0 16 -14
0 -12 5 -24 10 -27 6 -3 10 1 10 9 0 11 9 16 30 16 17 0 30 4 30 9 0 5 10 7
23 4 18 -5 20 -3 9 8 -10 11 -16 11 -32 1 -24 -15 -30 -15 -30 -2 0 6 12 16
28 22 l27 11 -25 7 c-14 3 -27 2 -29 -4 -5 -14 -28 -36 -36 -36 -3 0 -4 4 -1
8 2 4 -5 9 -17 9 -12 1 -27 9 -33 18 -6 8 -15 15 -19 15 -4 0 -2 -6 4 -14 16
-19 4 -25 -36 -19 -37 6 -43 18 -12 26 17 5 19 9 10 26 -13 24 -3 60 11 39 7
-10 11 -9 19 6 11 17 13 16 26 -15 l14 -34 14 33 c8 17 21 32 30 32 9 0 18 7
21 15 4 8 16 15 28 16 20 0 20 1 1 9 -19 8 -19 9 4 9 15 1 21 6 18 14 -3 7 7
24 21 38 19 18 24 19 19 6 -5 -14 -2 -16 19 -11 24 6 26 5 19 -16 -8 -25 -4
-23 48 24 14 13 22 16 25 8 5 -17 42 -15 43 3 1 8 2 20 3 27 1 14 26 23 26 9
0 -5 -4 -13 -10 -16 -16 -10 -12 -35 6 -35 17 0 54 36 54 52 0 4 7 8 15 8 8 0
15 9 15 20 0 23 0 23 35 10 29 -11 24 -35 -5 -27 -11 3 -21 -1 -24 -8 -2 -7 3
-12 12 -11 12 1 16 -6 15 -21 -3 -28 21 -31 36 -5 10 16 10 15 12 -3 2 -45 6
-65 14 -72 4 -5 5 0 2 9 -4 11 0 19 14 23 10 4 19 11 19 16 0 5 5 9 11 9 6 0
9 -6 6 -14 -4 -9 5 -21 20 -31 21 -14 27 -15 34 -4 8 12 10 12 18 0 5 -7 15
-10 22 -7 8 4 6 1 -5 -8 -18 -15 -18 -15 0 -15 34 1 80 -17 107 -39 15 -14 17
-13 17 6 0 12 6 22 13 22 21 0 28 -12 16 -27 -9 -9 -8 -13 0 -13 6 0 30 -12
52 -26 35 -22 49 -25 86 -19 26 4 47 13 50 22 8 20 51 63 63 63 6 0 10 -4 10
-10 0 -5 7 -10 16 -10 8 0 12 5 9 10 -11 18 5 32 22 19 17 -15 33 2 33 37 0
20 17 44 32 44 4 0 8 -9 8 -20 0 -12 9 -22 24 -26 14 -3 32 -14 42 -25 9 -10
25 -19 35 -19 25 0 69 -43 69 -68 0 -28 15 -36 33 -18 8 8 22 16 32 18 30 5
32 -60 4 -91 l-22 -23 22 7 c17 5 21 2 21 -14 0 -21 -14 -28 -24 -12 -6 8 -65
5 -74 -4 -9 -9 32 -34 48 -30 8 2 48 6 88 9 58 4 72 2 72 -10 0 -8 -10 -14
-22 -15 l-23 0 23 -10 c13 -5 29 -6 34 -2 8 4 9 -4 5 -24 -3 -17 -3 -33 0 -37
3 -3 7 -20 8 -38 2 -18 8 -34 14 -36 17 -6 13 -19 -14 -48 -25 -27 -33 -54
-16 -54 5 0 11 6 14 13 3 9 7 9 19 -1 13 -10 17 -10 21 0 8 24 20 -1 24 -54 2
-29 9 -58 15 -65 6 -7 8 -22 5 -33 -3 -11 -1 -23 4 -26 5 -3 9 -16 9 -28 0
-13 7 -30 16 -37 9 -8 28 -31 41 -53 20 -31 23 -43 15 -61 -10 -22 -9 -26 26
-84 8 -13 9 -21 2 -21 -15 0 -12 -26 4 -40 11 -9 14 -28 10 -76 -3 -50 -1 -66
10 -70 8 -3 12 -12 10 -19 -3 -7 0 -16 5 -20 6 -3 9 -11 6 -16 -9 -14 4 -49
18 -49 13 0 41 -55 40 -77 0 -7 3 -10 8 -7 5 3 9 -6 9 -20 0 -14 4 -28 10 -31
5 -3 7 -19 4 -35 -4 -20 0 -38 13 -57 11 -15 19 -39 18 -53 -2 -14 5 -33 13
-43 9 -10 18 -35 19 -55 3 -46 24 -125 35 -133 4 -3 10 -35 12 -71 2 -44 10
-76 24 -99 13 -22 18 -40 13 -49 -12 -21 39 -176 68 -208 14 -16 19 -28 12
-35 -9 -9 -8 -19 6 -57 4 -8 7 -19 8 -25 0 -5 4 -17 8 -25 12 -30 26 -93 21
-101 -2 -4 0 -10 4 -13 5 -3 10 -28 11 -57 1 -28 6 -59 11 -69 6 -10 10 -27
10 -38 0 -10 7 -33 16 -50 8 -18 18 -58 20 -89 3 -32 9 -67 14 -78 10 -22 14
-55 32 -235 6 -69 16 -128 21 -132 6 -3 11 -22 11 -42 1 -20 4 -36 8 -36 4 0
5 -13 3 -29 -2 -19 3 -38 16 -52 10 -12 19 -27 20 -33 3 -40 12 -72 22 -81 7
-5 11 -25 9 -44 -2 -22 0 -31 8 -26 7 5 9 -1 4 -19 -3 -15 -2 -26 4 -26 19 0
19 -52 1 -90 -11 -22 -19 -42 -19 -45 0 -3 20 -3 44 0 l44 6 3 -44 c2 -25 0
-43 -5 -40 -18 12 6 -51 25 -65 10 -7 19 -23 19 -35 0 -33 11 -254 21 -417 18
-300 -10 -926 -51 -1145 -5 -27 -12 -93 -14 -145 -3 -52 -10 -156 -15 -230 -6
-74 -15 -216 -21 -315 -5 -99 -12 -234 -16 -299 l-7 -119 24 6 c13 4 27 7 30
7 4 0 12 13 19 29 6 16 25 41 41 57 16 15 29 34 29 42 0 25 49 120 67 131 10
6 13 11 7 11 -8 0 -10 20 -7 59 3 43 0 70 -12 95 -14 30 -15 45 -5 111 6 42
18 92 26 110 17 42 19 116 2 113 -6 -2 -14 6 -16 16 -5 22 15 121 29 149 5 9
12 39 16 65 3 26 12 59 19 74 8 15 14 36 14 47 0 18 18 62 51 123 5 10 9 24 9
31 0 13 37 44 92 79 24 15 28 16 28 3 0 -9 10 -20 23 -26 31 -14 51 -70 42
-117 -8 -45 -26 -103 -37 -118 -5 -7 -11 -22 -13 -35 -3 -12 -9 -25 -14 -28
-5 -4 -13 -20 -17 -36 -4 -17 -13 -39 -20 -50 -14 -21 -11 -84 4 -94 13 -8 -5
-136 -25 -186 -9 -22 -19 -83 -24 -135 -4 -52 -10 -106 -13 -120 -2 -14 -7
-45 -10 -70 -9 -70 -16 -102 -31 -147 -24 -71 -91 -205 -126 -253 -19 -25 -38
-52 -44 -61 -5 -9 -28 -42 -49 -73 -43 -62 -40 -76 14 -76 15 0 31 -5 37 -11
11 -11 25 -1 65 49 17 22 98 198 98 215 0 5 11 25 25 44 15 18 35 67 46 110
11 42 27 89 35 104 7 15 23 76 34 134 12 59 27 121 35 138 7 18 19 59 26 92
11 51 22 71 75 132 69 80 77 99 98 228 8 50 26 122 41 162 21 60 27 101 34
234 l10 162 -30 36 c-28 34 -39 71 -20 71 5 0 14 -7 21 -15 11 -14 14 -13 25
2 13 18 13 40 0 154 -6 48 -3 79 8 120 9 30 21 98 27 153 12 99 31 160 106
331 19 44 47 98 63 120 15 22 33 56 41 75 7 19 17 40 21 45 11 16 59 141 86
223 23 75 53 241 74 412 6 50 8 198 5 360 -6 293 -20 419 -71 605 -22 83 -37
151 -66 310 -12 63 -34 136 -102 344 -38 115 -84 201 -107 201 -6 0 -10 8 -10
18 0 13 -2 14 -9 4 -7 -11 -10 -10 -15 3 -9 24 -8 25 10 18 12 -5 15 0 12 23
-2 21 -9 30 -25 32 -16 2 -23 -2 -23 -12 0 -24 -15 -19 -30 9 -7 14 -17 25
-22 25 -11 0 -10 -18 2 -25 6 -3 10 -14 10 -23 0 -13 -7 -9 -25 13 -33 39 -57
94 -50 115 3 10 -15 48 -46 95 -28 43 -61 101 -73 129 -13 28 -44 89 -69 135
-26 45 -51 99 -57 120 -5 20 -20 50 -32 67 -68 92 -138 181 -155 197 -20 17
-53 14 -53 -5 0 -5 5 -6 12 -2 7 5 8 3 3 -6 -7 -11 -12 -9 -24 9 -9 12 -49 60
-88 107 -53 61 -73 92 -73 113 0 30 -19 51 -88 94 -64 41 -86 48 -120 35 -38
-15 -61 1 -55 36 4 18 -3 30 -26 47 -17 13 -42 41 -55 64 -13 22 -36 51 -50
64 -14 14 -26 29 -26 34 0 16 -101 173 -147 229 -29 35 -44 64 -49 93 -7 53
-34 98 -71 121 -37 23 -173 164 -173 179 0 6 -21 40 -46 76 -25 35 -60 93 -79
129 -18 36 -62 97 -97 135 -35 39 -79 91 -96 116 -42 62 -437 460 -532 536
-98 78 -231 164 -314 202 -36 16 -102 56 -148 88 -211 150 -541 330 -698 380
-314 102 -574 131 -995 112z m408 -96 c43 -8 42 -23 -1 -23 -26 0 -47 7 -63
21 l-24 22 30 -7 c17 -4 42 -10 58 -13z m-185 -10 c-10 -2 -26 -2 -35 0 -10 3
-2 5 17 5 19 0 27 -2 18 -5z m776 -67 c52 -22 58 -41 11 -33 -42 7 -95 47 -62
47 10 0 33 -6 51 -14z m686 -2136 c0 -5 -2 -10 -4 -10 -3 0 -8 5 -11 10 -3 6
-1 10 4 10 6 0 11 -4 11 -10z m210 0 c0 -5 -7 -10 -15 -10 -8 0 -15 5 -15 10
0 6 7 10 15 10 8 0 15 -4 15 -10z m40 -44 c-7 -7 -13 -7 -20 0 -6 6 -3 10 10
10 13 0 16 -4 10 -10z m720 -11 c-7 -9 -15 -13 -17 -11 -7 7 7 26 19 26 6 0 6
-6 -2 -15z m-655 -15 c3 -5 2 -10 -4 -10 -5 0 -13 5 -16 10 -3 6 -2 10 4 10 5
0 13 -4 16 -10z m125 0 c0 -5 -4 -10 -9 -10 -5 0 -16 -3 -25 -6 -9 -3 -16 -1
-16 4 0 9 16 17 43 21 4 0 7 -3 7 -9z m344 -21 c-3 -5 -10 -7 -15 -3 -5 3 -7
10 -3 15 3 5 10 7 15 3 5 -3 7 -10 3 -15z m-59 -9 c3 -5 -1 -10 -10 -10 -9 0
-13 5 -10 10 3 6 8 10 10 10 2 0 7 -4 10 -10z m-262 -19 c4 -16 1 -17 -24 -7
-35 13 -38 26 -5 26 15 0 26 -7 29 -19z m151 -6 c3 -8 1 -15 -4 -15 -6 0 -10
7 -10 15 0 8 2 15 4 15 2 0 6 -7 10 -15z m-44 -46 c0 -5 -7 -9 -15 -9 -8 0
-15 7 -15 15 0 9 6 12 15 9 8 -4 15 -10 15 -15z m40 -19 c-19 -13 -30 -13 -30
0 0 6 10 10 23 10 18 0 19 -2 7 -10z m-1125 -220 c3 -5 1 -10 -4 -10 -6 0 -11
5 -11 10 0 6 2 10 4 10 3 0 8 -4 11 -10z m-665 -77 c0 -3 -7 -11 -15 -19 -13
-14 -15 -13 -15 4 0 10 7 19 15 19 8 0 15 -2 15 -4z m560 -18 c0 -8 -7 -15
-15 -15 -9 0 -12 6 -9 15 4 8 10 15 15 15 5 0 9 -7 9 -15z m-280 -11 c0 -8 -5
-12 -10 -9 -6 4 -8 11 -5 16 9 14 15 11 15 -7z m-414 -43 c-4 -6 -17 -11 -28
-11 -21 0 -21 1 -3 20 19 21 44 13 31 -9z m34 -26 c0 -8 -4 -17 -10 -20 -6 -4
-10 5 -10 20 0 15 4 24 10 20 6 -3 10 -12 10 -20z m73 3 c-9 -10 -19 -15 -22
-10 -3 5 -13 12 -21 16 -8 3 -5 4 8 2 12 -2 22 -1 22 3 0 4 7 8 15 8 13 0 13
-3 -2 -19z m59 4 c3 -12 -1 -18 -12 -19 -13 -1 -16 4 -13 18 7 24 19 25 25 1z
m365 -8 c-3 -3 -12 -4 -19 -1 -8 3 -5 6 6 6 11 1 17 -2 13 -5z m-412 -60 c0
-15 -6 -29 -14 -32 -9 -3 -11 0 -5 9 7 12 5 12 -9 0 -15 -12 -17 -11 -17 3 0
9 4 16 9 16 5 0 11 9 14 21 8 29 23 17 22 -17z m530 0 c-5 -45 -9 -49 -25 -29
-10 12 -10 15 4 15 18 0 22 15 6 25 -12 7 -4 25 11 25 5 0 7 -16 4 -36z m-509
11 c-3 -9 -1 -15 7 -14 27 3 47 -2 47 -12 0 -6 -7 -8 -16 -5 -12 4 -15 2 -10
-9 4 -12 2 -13 -14 -3 -22 14 -33 35 -24 49 9 15 17 10 10 -6z m394 6 c0 -18
-17 -20 -36 -6 -18 14 -18 14 9 15 15 0 27 -4 27 -9z m60 -1 c0 -5 -4 -10 -9
-10 -6 0 -13 5 -16 10 -3 6 1 10 9 10 9 0 16 -4 16 -10z m-317 -20 c-3 -11 -9
-20 -14 -20 -11 0 -11 3 -3 24 9 23 23 20 17 -4z m151 11 c3 -4 -1 -17 -9 -27
-13 -17 -14 -18 -15 -1 0 9 -6 17 -12 17 -9 0 -8 4 2 10 19 12 27 12 34 1z
m-480 -63 c8 -6 8 -8 -1 -8 -16 0 -32 31 -24 50 4 10 7 7 9 -10 2 -14 9 -28
16 -32z m296 31 c0 -18 -2 -20 -15 -9 -13 11 -13 15 -3 21 18 12 18 12 18 -12z
m-120 -39 c0 -5 -7 -10 -15 -10 -8 0 -15 5 -15 10 0 6 7 10 15 10 8 0 15 -4
15 -10z m80 0 c0 -5 -9 -10 -20 -10 -10 0 -24 -9 -30 -20 -13 -24 -30 -26 -30
-5 0 8 5 15 11 15 6 0 17 7 25 15 17 17 44 20 44 5z m70 1 c0 -5 -9 -11 -20
-14 -20 -5 -26 3 -13 16 9 10 33 8 33 -2z m-66 -45 c-3 -9 -16 -16 -28 -16
-20 0 -20 1 4 20 28 21 33 20 24 -4z m-504 -41 c0 -7 3 -21 7 -31 5 -14 2 -16
-15 -12 -12 4 -23 2 -23 -3 -1 -5 -2 -14 -3 -21 0 -6 -6 -13 -12 -15 -7 -2
-10 6 -9 22 2 14 -1 25 -6 25 -5 0 -9 -4 -9 -10 0 -5 -4 -10 -10 -10 -17 0
-11 40 11 71 19 28 21 28 45 13 13 -9 24 -22 24 -29z m169 9 c-17 -21 -31 -17
-17 5 7 11 16 17 20 14 5 -2 4 -11 -3 -19z m-119 -25 c0 -6 -4 -7 -10 -4 -5 3
-10 11 -10 16 0 6 5 7 10 4 6 -3 10 -11 10 -16z m-140 -59 c0 -5 -5 -10 -11
-10 -5 0 -7 5 -4 10 3 6 8 10 11 10 2 0 4 -4 4 -10z m45 -260 c3 -5 1 -10 -4
-10 -6 0 -11 5 -11 10 0 6 2 10 4 10 3 0 8 -4 11 -10z m132 -82 c-3 -8 -6 -5
-6 6 -1 11 2 17 5 13 3 -3 4 -12 1 -19z m3040 0 c-3 -8 -6 -5 -6 6 -1 11 2 17
5 13 3 -3 4 -12 1 -19z m-3122 -58 c3 -5 1 -10 -4 -10 -6 0 -11 5 -11 10 0 6
2 10 4 10 3 0 8 -4 11 -10z m-15 -66 c0 -3 -7 -12 -15 -20 -12 -13 -15 -13
-15 -1 0 7 3 17 7 20 8 8 23 9 23 1z m62 -61 c-2 -12 2 -24 8 -28 5 -3 10 -13
10 -22 0 -14 -2 -14 -22 0 -14 9 -22 23 -20 35 2 13 -4 21 -19 25 -11 3 -18
10 -15 15 4 6 18 7 34 3 20 -6 26 -13 24 -28z m-92 -13 c0 -5 -5 -10 -11 -10
-5 0 -7 5 -4 10 3 6 8 10 11 10 2 0 4 -4 4 -10z m43 -39 c-3 -12 -11 -17 -19
-14 -23 9 -14 33 12 33 7 0 10 -8 7 -19z m97 -16 c0 -8 -7 -15 -15 -15 -8 0
-15 -5 -15 -12 0 -6 -3 -8 -7 -5 -3 4 2 16 12 27 22 24 25 25 25 5z m-175 -5
c3 -5 1 -10 -4 -10 -6 0 -11 5 -11 10 0 6 2 10 4 10 3 0 8 -4 11 -10z m115
-26 c0 -8 -9 -14 -20 -14 -22 0 -23 1 -14 24 7 18 34 10 34 -10z m-160 -24 c0
-5 -7 -10 -16 -10 -8 0 -12 5 -9 10 3 6 10 10 16 10 5 0 9 -4 9 -10z m20 -45
c11 -13 10 -14 -2 -10 -9 4 -22 -1 -31 -9 -20 -21 -24 -20 -38 7 -9 18 -9 20
2 10 18 -17 29 -16 29 2 0 19 24 19 40 0z m414 -271 c3 -8 2 -12 -4 -9 -6 3
-10 10 -10 16 0 14 7 11 14 -7z m-127 -61 c-3 -10 -5 -4 -5 12 0 17 2 24 5 18
2 -7 2 -21 0 -30z m253 -38 c0 -8 -4 -15 -9 -15 -13 0 -22 16 -14 24 11 11 23
6 23 -9z m30 -53 c-8 -3 -18 -10 -22 -16 -4 -6 -10 -7 -14 -3 -10 10 28 37 40
29 6 -3 3 -8 -4 -10z m-54 -27 c4 -8 13 -15 22 -15 13 0 12 -3 -4 -15 -18 -14
-18 -14 9 -15 15 0 27 -5 27 -11 0 -5 -3 -8 -8 -5 -11 7 -45 -21 -38 -33 4 -5
-2 -9 -13 -8 -16 1 -18 4 -9 15 9 10 8 16 -2 22 -11 7 -16 45 -11 75 2 11 22
4 27 -10z m-52 -28 c6 -5 0 -5 -14 -1 -33 9 -37 13 -20 24 10 6 16 5 19 -3 2
-7 9 -16 15 -20z m-295 -163 c2 -2 2 -6 -1 -9 -8 -8 -68 6 -68 16 0 8 59 1 69
-7z m-659 -24 c0 -5 -4 -10 -10 -10 -5 0 -10 5 -10 10 0 6 5 10 10 10 6 0 10
-4 10 -10z m480 -15 c0 -8 -4 -15 -10 -15 -5 0 -7 7 -4 15 4 8 8 15 10 15 2 0
4 -7 4 -15z m252 -7 c-7 -7 -12 -8 -12 -2 0 14 12 26 19 19 2 -3 -1 -11 -7
-17z m-714 -10 c34 -3 -2 -85 -41 -94 -36 -8 -67 19 -67 58 0 26 8 33 38 29 6
-1 12 3 12 10 0 7 8 9 23 4 12 -3 28 -7 35 -7z m815 -68 c-6 -6 -33 30 -33 43
0 5 9 -1 19 -14 11 -13 17 -26 14 -29z m-208 30 c3 -5 2 -10 -4 -10 -5 0 -13
5 -16 10 -3 6 -2 10 4 10 5 0 13 -4 16 -10z m-40 -10 c3 -5 1 -10 -4 -10 -6 0
-11 5 -11 10 0 6 2 10 4 10 3 0 8 -4 11 -10z m415 -5 c0 -8 -4 -15 -10 -15 -5
0 -10 7 -10 15 0 8 5 15 10 15 6 0 10 -7 10 -15z m-80 -16 c0 -6 -4 -7 -10 -4
-5 3 -10 11 -10 16 0 6 5 7 10 4 6 -3 10 -11 10 -16z m120 -84 c0 -8 -7 -15
-15 -15 -16 0 -20 12 -8 23 11 12 23 8 23 -8z m-25 -25 c3 -5 -3 -10 -14 -10
-12 0 -21 5 -21 10 0 6 6 10 14 10 8 0 18 -4 21 -10z m-850 -40 c16 -18 16
-20 1 -35 -15 -15 -16 -14 -16 9 0 14 -4 26 -10 26 -5 0 -10 5 -10 10 0 16 15
12 35 -10z m-60 0 c3 -5 1 -10 -4 -10 -6 0 -11 5 -11 10 0 6 2 10 4 10 3 0 8
-4 11 -10z m-165 -22 c0 -6 -6 -5 -15 2 -8 7 -15 14 -15 16 0 2 7 1 15 -2 8
-4 15 -11 15 -16z m342 10 c15 15 28 16 28 2 0 -5 -6 -10 -14 -10 -8 0 -17 -6
-19 -12 -4 -10 -8 -9 -16 2 -6 8 -11 20 -11 25 0 6 5 3 10 -5 7 -12 12 -12 22
-2z m468 -8 c0 -5 -4 -10 -10 -10 -5 0 -10 5 -10 10 0 6 5 10 10 10 6 0 10 -4
10 -10z m-690 -10 c0 -5 -7 -10 -15 -10 -8 0 -15 5 -15 10 0 6 7 10 15 10 8 0
15 -4 15 -10z m378 -2 c-2 -6 -10 -14 -16 -16 -7 -2 -10 2 -6 12 7 18 28 22
22 4z m-582 -52 c2 -12 1 -13 -3 -1 -5 18 -20 20 -26 3 -2 -7 -8 -9 -13 -5
-10 9 16 28 31 24 6 -2 11 -11 11 -21z m648 8 c3 -8 2 -12 -4 -9 -6 3 -10 10
-10 16 0 14 7 11 14 -7z m51 6 c3 -5 1 -10 -4 -10 -6 0 -11 5 -11 10 0 6 2 10
4 10 3 0 8 -4 11 -10z m-75 -16 c0 -8 -5 -12 -10 -9 -6 4 -8 11 -5 16 9 14 15
11 15 -7z m-260 -4 c0 -5 -4 -10 -10 -10 -5 0 -10 5 -10 10 0 6 5 10 10 10 6
0 10 -4 10 -10z m67 -22 c-3 -7 -5 -2 -5 12 0 14 2 19 5 13 2 -7 2 -19 0 -25z
m-555 3 c12 -2 -4 -41 -17 -41 -7 0 -16 -6 -19 -12 -3 -7 -3 -1 0 15 5 23 3
27 -16 27 -11 0 -19 4 -16 8 4 7 41 8 68 3z m31 -69 c-3 -9 -15 -27 -25 -39
-15 -16 -18 -29 -13 -53 6 -28 3 -36 -21 -57 -26 -22 -29 -23 -35 -6 -11 28
-10 33 7 33 12 0 15 6 10 25 -8 31 1 33 14 3 8 -21 9 -20 7 7 -1 31 -12 47
-37 59 -9 3 -6 5 7 2 12 -2 24 1 27 8 2 6 5 3 5 -6 1 -10 6 -18 12 -18 5 0 8
4 4 9 -3 5 -1 12 4 16 6 3 8 11 5 18 -2 7 4 13 15 14 15 1 18 -3 14 -15z m617
8 c0 -5 -4 -10 -10 -10 -5 0 -10 5 -10 10 0 6 5 10 10 10 6 0 10 -4 10 -10z
m100 -10 c0 -5 -4 -10 -9 -10 -6 0 -13 5 -16 10 -3 6 1 10 9 10 9 0 16 -4 16
-10z m6 -35 c-9 -9 -16 -13 -16 -8 0 12 22 34 28 28 2 -2 -3 -11 -12 -20z
m-42 0 c-4 -8 -8 -15 -10 -15 -2 0 -4 7 -4 15 0 8 4 15 10 15 5 0 7 -7 4 -15z
m-79 -64 c-9 -29 -23 -17 -17 14 3 17 8 23 14 17 6 -6 7 -20 3 -31z m-52 -23
c-10 -19 -23 -5 -23 25 l0 32 14 -25 c7 -14 11 -28 9 -32z m-653 28 c0 -3 -4
-8 -10 -11 -5 -3 -10 -1 -10 4 0 6 5 11 10 11 6 0 10 -2 10 -4z m750 -32 c0
-14 -4 -23 -9 -20 -5 3 -8 17 -8 31 0 13 3 22 8 19 5 -3 9 -16 9 -30z m-866
10 c9 -24 2 -26 -12 -4 -7 11 -8 20 -3 20 5 0 12 -7 15 -16z m106 -34 c0 -5
-4 -10 -10 -10 -5 0 -10 5 -10 10 0 6 5 10 10 10 6 0 10 -4 10 -10z m734 -5
c3 -8 1 -15 -4 -15 -6 0 -10 7 -10 15 0 8 2 15 4 15 2 0 6 -7 10 -15z m156 -6
c0 -5 -7 -9 -15 -9 -15 0 -20 12 -9 23 8 8 24 -1 24 -14z m-933 -34 c-15 -16
-22 -11 -13 10 3 9 10 13 16 10 6 -4 5 -11 -3 -20z m61 3 c-3 -7 -15 -14 -29
-16 -24 -4 -24 -3 -4 12 24 19 38 20 33 4z m1972 2 c0 -5 -7 -10 -15 -10 -8 0
-15 5 -15 10 0 6 7 10 15 10 8 0 15 -4 15 -10z m-2060 -54 c0 -3 -7 -3 -15 0
-8 4 -15 13 -15 21 0 12 2 12 15 -1 8 -8 15 -17 15 -20z m975 24 c3 -5 -1 -10
-9 -10 -9 0 -16 5 -16 10 0 6 4 10 9 10 6 0 13 -4 16 -10z m35 -6 c0 -8 -5
-12 -10 -9 -6 4 -8 11 -5 16 9 14 15 11 15 -7z m860 12 c0 -2 -7 -9 -15 -16
-12 -10 -15 -10 -15 4 0 9 7 16 15 16 8 0 15 -2 15 -4z m445 -32 c-31 -16 -45
-18 -45 -6 0 10 52 30 63 24 5 -2 -4 -10 -18 -18z m-115 -38 c0 -2 -7 -7 -16
-10 -8 -3 -12 -2 -9 4 6 10 25 14 25 6z m533 -24 c38 -6 70 -12 73 -14 2 -3
-35 -5 -81 -6 -47 0 -94 -4 -105 -7 -14 -4 -20 -2 -18 7 2 8 -6 13 -19 12 -13
0 -23 5 -23 13 0 15 40 14 173 -5z m492 -73 c10 -15 -1 -22 -24 -14 -12 3 -19
11 -16 16 8 12 32 11 40 -2z m-675 -9 c0 -5 -4 -10 -10 -10 -5 0 -10 5 -10 10
0 6 5 10 10 10 6 0 10 -4 10 -10z m-2195 -30 c-3 -5 -1 -10 4 -10 6 0 11 -6
11 -14 0 -9 -8 -12 -25 -8 -29 5 -32 17 -7 31 22 13 25 13 17 1z m-71 -50 c-6
-5 -24 21 -24 34 0 6 6 1 14 -10 8 -10 12 -21 10 -24z m-59 12 c6 -4 11 -14
13 -22 2 -8 10 -19 18 -23 23 -13 16 -34 -16 -49 -16 -7 -29 -17 -29 -23 3
-24 -2 -36 -11 -30 -24 15 -1 75 29 75 5 0 13 5 16 10 4 7 -2 9 -17 5 -21 -5
-23 -2 -25 30 -2 35 3 41 22 27z m175 -12 c0 -5 -4 -10 -10 -10 -5 0 -10 5
-10 10 0 6 5 10 10 10 6 0 10 -4 10 -10z m-266 -25 c3 -9 0 -15 -10 -15 -8 0
-13 4 -10 9 4 5 0 12 -6 14 -8 4 -7 6 3 6 9 1 19 -6 23 -14z m1741 -15 c3 -5
-3 -10 -15 -10 -12 0 -18 5 -15 10 3 6 10 10 15 10 5 0 12 -4 15 -10z m-69
-47 c-10 -10 -19 5 -10 18 6 11 8 11 12 0 2 -7 1 -15 -2 -18z m34 17 c0 -5 -5
-10 -11 -10 -5 0 -7 5 -4 10 3 6 8 10 11 10 2 0 4 -4 4 -10z m580 -10 c0 -5
-4 -10 -10 -10 -5 0 -10 5 -10 10 0 6 5 10 10 10 6 0 10 -4 10 -10z m554 2 c2
-4 -7 -12 -20 -19 -28 -13 -43 1 -17 16 22 13 30 13 37 3z m-2697 -28 c-3 -3
-12 -4 -19 -1 -8 3 -5 6 6 6 11 1 17 -2 13 -5z m2163 -9 c0 -8 -4 -15 -10 -15
-5 0 -10 7 -10 15 0 8 5 15 10 15 6 0 10 -7 10 -15z m-1795 -5 c3 -6 -5 -10
-19 -10 -13 0 -27 -6 -29 -12 -4 -8 -6 -7 -6 4 -1 14 11 22 41 27 4 0 10 -3
13 -9z m1685 -24 c0 -3 -4 -8 -10 -11 -5 -3 -10 -1 -10 4 0 6 5 11 10 11 6 0
10 -2 10 -4z m-2100 -47 c0 -5 -7 -9 -15 -9 -9 0 -15 9 -15 21 0 18 2 19 15 9
8 -7 15 -16 15 -21z m2327 25 c-3 -3 -12 -4 -19 -1 -8 3 -5 6 6 6 11 1 17 -2
13 -5z m-2297 -14 c0 -5 -2 -10 -4 -10 -3 0 -8 5 -11 10 -3 6 -1 10 4 10 6 0
11 -4 11 -10z m2460 -4 c0 -3 -4 -8 -10 -11 -5 -3 -10 -1 -10 4 0 6 5 11 10
11 6 0 10 -2 10 -4z m-2040 -16 c0 -5 -2 -10 -4 -10 -3 0 -8 5 -11 10 -3 6 -1
10 4 10 6 0 11 -4 11 -10z m11 -39 c-14 -9 -18 -67 -6 -79 3 -4 10 0 16 8 8
13 10 13 18 1 7 -11 11 -8 17 10 4 13 7 27 6 32 -3 12 8 8 24 -8 9 -8 11 -15
5 -15 -6 0 -11 -6 -11 -13 0 -21 -24 -67 -35 -67 -6 0 -16 5 -23 12 -9 9 -13
6 -20 -12 -8 -23 -9 -23 -35 11 -16 21 -22 36 -15 40 6 4 8 13 6 20 -7 19 30
69 50 69 14 0 14 -2 3 -9z m-1366 -311 c6 -10 34 -8 68 5 10 5 17 3 17 -5 0
-7 6 -10 13 -7 7 3 19 -4 25 -14 16 -25 36 -24 29 1 -6 25 10 27 18 1 4 -13
12 -17 30 -13 18 3 25 0 25 -12 0 -9 7 -16 15 -16 8 0 15 5 15 10 0 6 4 10 10
10 5 0 9 -8 8 -17 -3 -34 2 -54 12 -48 5 3 18 0 29 -7 19 -12 19 -13 3 -31
-16 -19 -16 -19 6 -12 18 5 27 2 38 -14 9 -12 22 -21 30 -21 24 0 94 -78 94
-105 0 -13 5 -27 10 -30 6 -4 8 -11 4 -16 -3 -5 -11 -6 -17 -2 -19 12 -47 10
-47 -3 0 -6 11 -15 25 -18 35 -9 31 -23 -6 -24 -17 0 -37 -6 -45 -13 -11 -9
-14 -9 -14 1 0 8 -12 10 -40 6 -26 -3 -39 -2 -35 4 7 12 3 12 -19 4 -15 -6
-15 -8 1 -20 16 -12 17 -13 1 -14 -9 0 -19 4 -23 10 -3 5 -12 7 -19 4 -8 -3
-17 -1 -21 5 -3 6 -15 11 -26 11 -30 0 -69 30 -70 54 -1 17 -2 17 -6 4 -2 -10
-8 -18 -11 -18 -20 1 -97 22 -102 28 -8 11 -98 32 -112 27 -7 -3 -19 4 -26 16
-13 20 -12 21 5 17 24 -6 49 17 30 29 -6 4 -12 17 -13 28 0 11 -3 43 -7 70 -6
45 -5 48 8 31 13 -17 15 -17 15 -3 0 10 13 20 33 26 17 5 25 10 17 10 -22 1
-44 41 -31 54 8 8 11 6 11 -7 0 -10 6 -16 13 -13 6 2 11 14 10 26 -3 22 11 29
22 11z m1387 -37 c-6 -3 -10 -9 -6 -14 3 -5 0 -9 -5 -9 -6 0 -11 4 -11 8 0 12
23 32 29 25 3 -3 0 -8 -7 -10z m-1458 -18 c4 -10 -5 -20 -29 -29 -19 -8 -35
-21 -35 -28 0 -8 -6 -6 -17 5 -16 16 -16 19 -3 27 8 5 23 10 34 10 12 0 16 5
12 15 -3 10 1 15 13 15 10 0 21 -7 25 -15z m-34 -86 c0 -5 -4 -9 -8 -9 -5 0
-9 7 -9 15 0 8 4 12 9 9 4 -3 8 -9 8 -15z m1510 -39 c0 -5 -2 -10 -4 -10 -3 0
-8 5 -11 10 -3 6 -1 10 4 10 6 0 11 -4 11 -10z m-3540 -15 c0 -8 -4 -15 -9
-15 -13 0 -22 16 -14 24 11 11 23 6 23 -9z m328 -50 c-11 -11 -38 8 -38 26 0
19 1 19 22 -1 12 -11 19 -22 16 -25z m1628 -12 c-10 -10 -19 5 -10 18 6 11 8
11 12 0 2 -7 1 -15 -2 -18z m-1958 -5 c-2 -6 -10 -14 -16 -16 -7 -2 -10 2 -6
12 7 18 28 22 22 4z m32 -13 c7 -9 8 -15 2 -15 -5 0 -12 7 -16 15 -3 8 -4 15
-2 15 2 0 9 -7 16 -15z m60 6 c0 -6 -4 -12 -8 -15 -5 -3 -9 1 -9 9 0 8 4 15 9
15 4 0 8 -4 8 -9z m170 -19 c0 -15 -2 -15 -10 -2 -13 20 -13 33 0 25 6 -3 10
-14 10 -23z m-263 -57 c0 -8 -4 -15 -9 -15 -10 0 -11 14 -1 23 9 10 10 9 10
-8z m198 -16 c11 -17 -1 -21 -15 -4 -8 9 -8 15 -2 15 6 0 14 -5 17 -11z m-312
-36 c-7 -2 -19 -2 -25 0 -7 3 -2 5 12 5 14 0 19 -2 13 -5z m319 -24 c-3 -21 1
-34 14 -44 23 -17 14 -19 -18 -4 -20 8 -23 16 -20 45 2 19 10 34 16 34 8 0 11
-11 8 -31z m-367 -9 c-3 -5 -16 -10 -28 -9 -21 0 -21 1 -2 9 28 12 37 12 30 0z
m57 -18 c-7 -2 -10 -7 -7 -12 3 -4 -4 -6 -15 -3 -20 5 -25 15 -14 25 3 3 15 3
27 0 12 -3 16 -7 9 -10z m2688 -12 c0 -5 -5 -10 -11 -10 -5 0 -7 5 -4 10 3 6
8 10 11 10 2 0 4 -4 4 -10z m-220 -61 c0 -13 -39 -2 -62 19 -31 27 -19 33 22
12 22 -11 40 -25 40 -31z m3338 -46 c2 -19 -1 -33 -7 -33 -6 0 -11 -18 -11
-40 0 -27 -7 -47 -20 -60 -22 -22 -39 -26 -41 -10 -1 6 -2 15 -3 20 0 6 -8 15
-16 20 -13 8 -13 10 2 10 23 0 48 50 48 95 0 32 3 36 23 33 17 -2 23 -11 25
-35z m149 18 c29 -6 63 -26 103 -61 61 -53 68 -67 37 -82 -33 -16 -45 -23 -91
-55 -26 -18 -59 -36 -74 -39 -15 -4 -33 -11 -40 -17 -7 -5 -15 -7 -18 -4 -3 3
-27 -1 -52 -9 -71 -21 -73 -18 -22 34 45 44 48 51 56 117 4 39 7 73 6 77 -1 4
3 19 8 33 7 19 15 25 28 21 9 -3 36 -9 59 -15z m-260 -13 c21 -34 -9 -88 -49
-88 -16 0 -17 3 -4 33 8 17 17 40 20 50 6 20 22 22 33 5z m-5347 -48 c0 -5 -2
-10 -4 -10 -2 0 -12 -3 -20 -6 -12 -5 -15 -2 -10 10 7 17 34 22 34 6z m-470
-10 c0 -5 -4 -10 -10 -10 -5 0 -10 5 -10 10 0 6 5 10 10 10 6 0 10 -4 10 -10z
m2320 -40 c0 -33 4 -50 13 -50 25 0 39 18 44 59 6 45 26 52 47 19 9 -15 3 -25
-33 -58 -38 -36 -48 -40 -75 -34 -55 11 -76 46 -36 59 11 3 19 9 19 13 -3 21
2 42 11 42 6 0 10 -22 10 -50z m-1843 -52 c-3 -8 -6 -5 -6 6 -1 11 2 17 5 13
3 -3 4 -12 1 -19z m1263 -18 c0 -13 -11 -13 -30 0 -12 8 -11 10 8 10 12 0 22
-4 22 -10z m40 -42 c0 -18 -2 -19 -17 -7 -10 7 -20 14 -22 16 -1 1 0 6 3 12
10 16 36 1 36 -21z m702 -6 c-4 -11 -1 -14 12 -9 11 4 15 3 11 -4 -4 -6 -13
-8 -21 -5 -8 3 -14 -1 -14 -9 0 -8 5 -15 12 -15 6 0 8 -3 5 -7 -4 -3 -2 -12 4
-20 14 -17 -2 -17 -20 0 -8 7 -11 7 -8 1 4 -7 -2 -14 -12 -17 -26 -6 -33 14
-15 44 7 13 19 36 26 51 13 28 31 19 20 -10z m3665 -108 c-3 -3 -12 -4 -19 -1
-8 3 -5 6 6 6 11 1 17 -2 13 -5z m-5563 -150 c9 -24 7 -28 -9 -14 -17 14 -20
30 -6 30 5 0 12 -7 15 -16z m5176 -58 c0 -3 -4 -8 -10 -11 -5 -3 -10 -1 -10 4
0 6 5 11 10 11 6 0 10 -2 10 -4z m-5053 -38 c-3 -8 -6 -5 -6 6 -1 11 2 17 5
13 3 -3 4 -12 1 -19z m-1217 -59 c0 -4 -9 -5 -20 -2 -11 3 -20 0 -20 -6 0 -6
6 -11 14 -11 22 0 46 -40 46 -77 0 -29 -2 -32 -22 -24 -29 10 -59 61 -40 68 9
4 10 9 2 18 -5 6 -7 26 -4 44 6 30 8 31 25 15 11 -9 19 -20 19 -25z m1205 -29
c3 -5 1 -10 -4 -10 -6 0 -11 5 -11 10 0 6 2 10 4 10 3 0 8 -4 11 -10z m165
-160 c0 -11 -4 -20 -9 -20 -13 0 -32 26 -24 33 13 14 33 6 33 -13z m3190 -74
c0 -3 -4 -8 -10 -11 -5 -3 -10 -1 -10 4 0 6 5 11 10 11 6 0 10 -2 10 -4z
m1635 -16 c8 -13 -15 -13 -35 0 -12 8 -11 10 7 10 12 0 25 -4 28 -10z m642
-122 c-3 -8 -6 -5 -6 6 -1 11 2 17 5 13 3 -3 4 -12 1 -19z m-5318 -85 c0 -5
-4 -17 -9 -28 -8 -18 -9 -17 -9 8 -1 15 4 27 9 27 6 0 10 -3 9 -7z m4066 -123
c3 -6 -1 -7 -9 -4 -18 7 -21 14 -7 14 6 0 13 -4 16 -10z m98 -1 c-6 -6 -9 -19
-5 -27 5 -14 4 -15 -10 -2 -17 16 -7 40 15 40 8 0 8 -3 0 -11z m-4099 -15 c18
-18 21 -34 5 -34 -5 0 -7 5 -3 11 4 8 0 9 -15 4 -23 -7 -24 -5 -15 19 8 20 9
20 28 0z m4281 -40 c-24 -21 -26 -26 -10 -22 17 4 20 0 20 -25 0 -31 -18 -47
-30 -28 -3 6 -1 11 4 11 6 0 11 5 11 11 0 6 -9 9 -20 6 -10 -3 -21 0 -24 7 -3
7 -8 6 -15 -4 -6 -8 -11 -10 -11 -4 0 6 6 17 14 24 8 6 12 18 10 25 -5 13 10
18 66 23 9 1 2 -9 -15 -24z m-4283 -10 c9 -9 -4 -45 -15 -41 -5 1 -14 13 -18
25 -7 18 -5 22 10 22 10 0 20 -3 23 -6z m25 -19 c0 -8 -4 -15 -9 -15 -10 0
-11 14 -1 23 9 10 10 9 10 -8z m51 -43 c2 -7 -3 -12 -12 -12 -9 0 -16 7 -16
16 0 17 22 14 28 -4z m4884 -7 c0 -5 -5 -11 -11 -13 -6 -2 -11 4 -11 13 0 9 5
15 11 13 6 -2 11 -8 11 -13z m-6272 -41 c0 -15 -6 -24 -15 -24 -11 0 -15 11
-15 36 0 31 2 35 15 24 8 -7 15 -23 15 -36z m1329 23 c12 -15 5 -27 -16 -27
-7 0 -13 9 -13 20 0 23 13 26 29 7z m4886 -7 c3 -5 4 -14 0 -20 -8 -13 -35 -1
-35 16 0 16 26 19 35 4z m-570 -37 c-4 -21 -12 -41 -18 -45 -16 -10 -39 13
-34 33 3 10 -2 20 -10 23 -23 9 -8 21 32 24 l37 2 -7 -37z m-195 -8 c-18 -22
3 -25 27 -3 13 12 23 16 23 10 0 -7 -4 -12 -10 -12 -5 0 -10 -7 -10 -15 0 -16
-27 -20 -47 -7 -17 11 -5 52 13 45 10 -4 11 -9 4 -18z m827 3 c-3 -8 -6 -5 -6
6 -1 11 2 17 5 13 3 -3 4 -12 1 -19z m-520 -90 c-3 -8 -6 -5 -6 6 -1 11 2 17
5 13 3 -3 4 -12 1 -19z m-5800 -58 c3 -39 1 -60 -6 -60 -7 0 -11 26 -11 67 0
81 11 76 17 -7z m6155 58 c-7 -7 -16 -7 -28 0 -14 8 -13 10 10 10 18 0 24 -4
18 -10z m-22 -48 c0 -5 -4 -10 -10 -10 -5 0 -10 5 -10 10 0 6 5 10 10 10 6 0
10 -4 10 -10z m-1770 -40 c0 -5 -2 -10 -4 -10 -3 0 -8 5 -11 10 -3 6 -1 10 4
10 6 0 11 -4 11 -10z m-2863 -57 c2 -6 -7 -13 -21 -15 -21 -4 -23 -3 -13 14
12 19 28 19 34 1z m4543 -3 c0 -5 -2 -10 -4 -10 -3 0 -8 5 -11 10 -3 6 -1 10
4 10 6 0 11 -4 11 -10z m-4600 -10 c0 -5 -4 -10 -10 -10 -5 0 -10 5 -10 10 0
6 5 10 10 10 6 0 10 -4 10 -10z m2880 -5 c0 -9 -6 -12 -15 -9 -8 4 -15 10 -15
15 0 5 7 9 15 9 8 0 15 -7 15 -15z m-2850 -39 c0 -3 -4 -8 -10 -11 -5 -3 -10
-1 -10 4 0 6 5 11 10 11 6 0 10 -2 10 -4z m-1470 -36 c0 -5 -2 -10 -4 -10 -3
0 -8 5 -11 10 -3 6 -1 10 4 10 6 0 11 -4 11 -10z m4200 -130 c0 -11 -2 -20 -4
-20 -2 0 -6 9 -9 20 -3 11 -1 20 4 20 5 0 9 -9 9 -20z m-4183 -142 c-3 -8 -6
-5 -6 6 -1 11 2 17 5 13 3 -3 4 -12 1 -19z m5937 -13 c-4 -8 -8 -15 -10 -15
-2 0 -4 7 -4 15 0 8 4 15 10 15 5 0 7 -7 4 -15z m-5924 -15 c0 -5 -2 -10 -4
-10 -3 0 -8 5 -11 10 -3 6 -1 10 4 10 6 0 11 -4 11 -10z m86 -147 c-10 -10
-19 5 -10 18 6 11 8 11 12 0 2 -7 1 -15 -2 -18z m1430 -21 c-12 -23 -12 -32
-3 -42 9 -10 9 -11 -3 -8 -18 6 -17 53 1 74 19 23 22 9 5 -24z m-1333 -24 c5
-18 -3 -48 -14 -48 -13 0 -22 27 -15 45 7 18 23 20 29 3z m3902 -18 c3 -5 1
-10 -4 -10 -6 0 -11 5 -11 10 0 6 2 10 4 10 3 0 8 -4 11 -10z m-3968 -52 c-3
-7 -5 -2 -5 12 0 14 2 19 5 13 2 -7 2 -19 0 -25z m5973 -18 c0 -5 -4 -10 -10
-10 -5 0 -10 5 -10 10 0 6 5 10 10 10 6 0 10 -4 10 -10z m-4860 -297 c0 -14
-19 -38 -25 -32 -8 8 5 39 16 39 5 0 9 -3 9 -7z m-40 -13 c0 -5 -4 -10 -10
-10 -5 0 -10 5 -10 10 0 6 5 10 10 10 6 0 10 -4 10 -10z m-1040 -10 c0 -5 -5
-10 -11 -10 -5 0 -7 5 -4 10 3 6 8 10 11 10 2 0 4 -4 4 -10z m1030 -20 c0 -5
-7 -10 -16 -10 -8 0 -12 5 -9 10 3 6 10 10 16 10 5 0 9 -4 9 -10z m5180 -75
c0 -8 -7 -15 -15 -15 -8 0 -15 7 -15 15 0 8 7 15 15 15 8 0 15 -7 15 -15z
m-5193 -17 c-3 -8 -6 -5 -6 6 -1 11 2 17 5 13 3 -3 4 -12 1 -19z m-7 -28 c0
-5 -9 -10 -19 -10 -14 0 -18 -5 -14 -19 3 -14 -2 -20 -21 -23 -14 -3 -26 -1
-26 3 0 5 8 9 18 10 12 0 13 2 3 6 -11 4 -8 10 10 24 26 20 49 25 49 9z m260
-76 c0 -8 -5 -12 -10 -9 -6 4 -8 11 -5 16 9 14 15 11 15 -7z m2610 -44 c0 -29
-1 -29 -20 -13 -11 10 -20 23 -20 30 0 7 9 13 20 13 16 0 20 -7 20 -30z m-60
-1 c0 -5 -4 -9 -10 -9 -5 0 -10 7 -10 16 0 8 5 12 10 9 6 -3 10 -10 10 -16z
m46 -81 c6 -21 -6 -41 -13 -20 -3 6 -9 10 -14 6 -5 -3 -9 3 -9 14 0 24 28 24
36 0z m-66 -48 c0 -5 -4 -10 -10 -10 -5 0 -7 -7 -4 -15 4 -9 0 -15 -9 -15 -22
0 -31 18 -17 35 14 17 40 20 40 5z m2280 -109 c0 -17 -18 -21 -24 -6 -3 9 0
15 9 15 8 0 15 -4 15 -9z m-190 -26 c-7 -8 -17 -15 -22 -15 -6 0 -5 7 2 15 7
8 17 15 22 15 6 0 5 -7 -2 -15z m-2040 -25 c0 -10 -9 -24 -19 -30 -29 -15 -35
5 -9 29 27 26 28 26 28 1z m-3160 -220 c0 -5 -4 -10 -10 -10 -5 0 -10 5 -10
10 0 6 5 10 10 10 6 0 10 -4 10 -10z m86 -24 c-6 -30 -4 -34 12 -29 16 4 19 0
15 -21 -3 -14 -9 -26 -14 -26 -5 0 -9 -7 -9 -15 0 -8 6 -12 14 -9 18 7 26 -7
19 -34 -7 -28 -33 -29 -33 -2 0 12 -7 20 -16 20 -14 0 -15 7 -10 44 4 26 3 47
-3 50 -7 5 -6 15 1 31 16 37 31 31 24 -9z m2064 -6 c0 -10 6 -23 13 -27 17
-11 15 -36 -5 -51 -10 -7 -18 -22 -18 -32 0 -10 -5 -22 -12 -26 -8 -5 -9 0 -6
14 4 12 2 20 -3 16 -5 -3 -9 1 -9 8 0 8 -5 6 -11 -5 -12 -21 -28 -14 -24 11 1
9 0 11 -2 5 -3 -7 -10 -13 -17 -13 -9 0 -12 -9 -8 -25 2 -15 0 -25 -7 -25 -6
0 -11 9 -11 19 0 32 -11 50 -26 44 -23 -9 -16 23 9 36 12 6 30 25 39 41 15 26
23 30 58 30 33 0 40 -3 40 -20z m40 -6 c0 -8 -4 -12 -10 -9 -5 3 -10 13 -10
21 0 8 5 12 10 9 6 -3 10 -13 10 -21z m40 16 c0 -5 -4 -10 -10 -10 -5 0 -10 5
-10 10 0 6 5 10 10 10 6 0 10 -4 10 -10z m41 -27 c24 -29 21 -36 -17 -40 -23
-2 -33 0 -29 7 3 6 10 8 15 5 4 -3 11 3 14 12 4 9 1 20 -6 25 -7 4 -8 8 -3 8
6 0 17 -8 26 -17z m-2283 -68 c-3 -3 -9 2 -12 12 -6 14 -5 15 5 6 7 -7 10 -15
7 -18z m-38 1 c0 -2 -7 -7 -16 -10 -8 -3 -12 -2 -9 4 6 10 25 14 25 6z m1994
-11 c-4 -10 -2 -13 8 -10 8 3 28 1 43 -5 23 -9 26 -13 15 -20 -8 -5 -18 -6
-22 -4 -4 3 -8 1 -8 -4 0 -11 -50 -26 -58 -17 -3 3 2 11 12 18 16 12 16 14 2
26 -20 17 -21 31 -1 31 9 0 12 -6 9 -15z m-1924 -115 c0 -5 -9 -10 -20 -10
-11 0 -20 5 -20 10 0 6 9 10 20 10 11 0 20 -4 20 -10z m60 -40 c0 -5 -2 -10
-4 -10 -3 0 -8 5 -11 10 -3 6 -1 10 4 10 6 0 11 -4 11 -10z m3638 -130 c-13
-20 -48 -34 -48 -19 0 15 34 46 47 41 9 -3 9 -8 1 -22z m-70 -9 c3 -18 0 -22
-11 -18 -8 3 -20 0 -26 -6 -8 -8 -11 -2 -11 22 0 28 3 32 23 29 14 -2 23 -11
25 -27z m-3513 -11 c3 -5 -1 -10 -9 -10 -9 0 -16 5 -16 10 0 6 4 10 9 10 6 0
13 -4 16 -10z m-70 -10 c3 -5 1 -10 -4 -10 -6 0 -11 5 -11 10 0 6 2 10 4 10 3
0 8 -4 11 -10z m3575 -30 c0 -5 -4 -10 -10 -10 -5 0 -10 5 -10 10 0 6 5 10 10
10 6 0 10 -4 10 -10z m-3470 -20 c0 -5 -4 -10 -10 -10 -5 0 -10 5 -10 10 0 6
5 10 10 10 6 0 10 -4 10 -10z m2111 -62 c1 -7 1 -16 1 -19 0 -3 16 -14 36 -24
20 -11 38 -20 40 -21 6 -3 -33 -64 -41 -64 -22 0 -67 33 -67 49 0 17 -39 37
-62 33 -10 -2 -31 28 -25 35 7 6 68 20 100 22 9 0 18 -5 18 -11z m41 -20 c-7
-7 -12 -8 -12 -2 0 14 12 26 19 19 2 -3 -1 -11 -7 -17z m2513 -56 c-3 -3 -11
0 -18 7 -9 10 -8 11 6 5 10 -3 15 -9 12 -12z m-2605 -53 c0 -52 -14 -49 -27 5
-9 40 -8 43 9 38 13 -3 18 -14 18 -43z m-187 -17 c7 -10 -25 -112 -35 -112
-11 0 -10 17 0 24 5 3 9 24 10 46 1 29 -2 39 -10 34 -7 -4 -8 -3 -4 4 8 13 32
16 39 4z m117 -41 c0 -5 -7 -12 -16 -15 -14 -5 -15 -4 -4 9 14 17 20 19 20 6z
m-165 -11 c-3 -5 -11 -10 -16 -10 -6 0 -7 5 -4 10 3 6 11 10 16 10 6 0 7 -4 4
-10z m82 -42 c-3 -8 -6 -5 -6 6 -1 11 2 17 5 13 3 -3 4 -12 1 -19z m-92 2 c3
-5 -1 -10 -10 -10 -9 0 -13 5 -10 10 3 6 8 10 10 10 2 0 7 -4 10 -10z m156
-27 c0 -5 2 -19 5 -32 4 -24 4 -24 -16 -6 -24 21 -26 45 -5 45 8 0 15 -3 16
-7z m-2059 -34 c-9 -11 -18 -15 -20 -10 -4 13 20 40 30 35 4 -3 0 -14 -10 -25z
m1922 16 c9 -9 23 -15 32 -13 9 2 19 -3 21 -10 4 -9 -2 -11 -21 -6 -17 4 -26
2 -26 -6 0 -13 -50 30 -50 43 0 13 28 8 44 -8z m-63 -9 c-16 -19 -3 -46 23
-47 19 -1 18 -2 -4 -8 -21 -6 -26 -3 -34 21 -5 15 -14 28 -20 28 -16 0 16 20
33 20 10 0 11 -3 2 -14z m-2011 -36 c0 -5 -5 -10 -11 -10 -5 0 -7 5 -4 10 3 6
8 10 11 10 2 0 4 -4 4 -10z m100 -12 c0 -9 3 -9 12 0 13 13 39 16 37 5 -1 -5
-1 -15 0 -23 1 -13 2 -13 11 0 13 21 35 -2 25 -27 -5 -10 -7 -24 -6 -31 1 -8
-5 -12 -16 -10 -12 3 -17 11 -16 26 2 12 -2 22 -7 22 -6 0 -10 -9 -10 -19 0
-27 -17 -35 -29 -14 -10 17 -10 17 -11 1 0 -31 -16 -20 -28 19 -10 33 -6 66 5
36 8 -21 26 -14 20 7 -3 11 -1 20 4 20 5 0 9 -5 9 -12z m2105 -8 c3 -5 1 -10
-4 -10 -6 0 -11 5 -11 10 0 6 2 10 4 10 3 0 8 -4 11 -10z m-2267 -17 c-10 -2
-28 -2 -40 0 -13 2 -5 4 17 4 22 1 32 -1 23 -4z m2110 -34 c-21 -14 -26 -10
-21 11 4 16 8 18 20 9 11 -10 11 -14 1 -20z m1672 10 c0 -5 -4 -9 -10 -9 -5 0
-10 7 -10 16 0 8 5 12 10 9 6 -3 10 -10 10 -16z m-1721 -15 c6 -15 9 -29 6
-32 -7 -7 -45 33 -45 48 0 20 27 9 39 -16z m-1966 -36 c-10 -11 -19 -15 -21
-8 -5 15 18 41 30 34 5 -3 1 -15 -9 -26z m5237 6 c0 -16 -2 -16 -24 -8 -13 5
-14 9 -5 20 13 16 29 9 29 -12z m-5105 -35 c0 -9 -11 -14 -33 -14 l-33 -1 23
18 c26 20 43 18 43 -3z m45 -19 c0 -5 -4 -10 -10 -10 -5 0 -10 5 -10 10 0 6 5
10 10 10 6 0 10 -4 10 -10z m-50 -60 c0 -5 -2 -10 -4 -10 -3 0 -8 5 -11 10 -3
6 -1 10 4 10 6 0 11 -4 11 -10z m-5 -38 c-3 -3 -11 0 -18 7 -9 10 -8 11 6 5
10 -3 15 -9 12 -12z m3610 -372 c3 -5 1 -10 -4 -10 -6 0 -11 5 -11 10 0 6 2
10 4 10 3 0 8 -4 11 -10z m45 -121 c0 -10 -12 -11 -34 -3 -25 10 -19 22 9 16
14 -2 25 -8 25 -13z m-636 -41 c-3 -4 -8 -7 -12 -5 -4 2 -15 7 -25 10 -10 4
-16 11 -12 17 4 6 15 5 30 -2 13 -6 22 -15 19 -20z m346 -218 c0 -5 -7 -7 -15
-4 -8 4 -15 8 -15 10 0 2 7 4 15 4 8 0 15 -4 15 -10z m-30 -32 c0 -16 -3 -19
-11 -11 -6 6 -8 16 -5 22 11 17 16 13 16 -11z m-25 -49 c4 -11 4 -23 1 -27 -8
-7 -36 30 -30 40 9 14 23 8 29 -13z m37 -21 c-9 -9 -12 -7 -12 12 0 19 3 21
12 12 9 -9 9 -15 0 -24z m-67 -8 c3 -5 -1 -10 -10 -10 -9 0 -13 5 -10 10 3 6
8 10 10 10 2 0 7 -4 10 -10z m-69 -220 c0 -22 -11 -26 -22 -9 -5 9 5 22 21 29
1 0 1 -9 1 -20z m-16 -120 c0 -19 -5 -25 -17 -22 -7 2 -13 -5 -14 -15 0 -10
-3 -13 -5 -6 -6 15 13 53 26 53 6 0 10 -4 10 -10z m109 -163 c8 -11 7 -19 -7
-35 -18 -20 -18 -20 -19 14 -1 36 7 43 26 21z m-79 -137 c0 -5 -5 -10 -11 -10
-5 0 -7 5 -4 10 3 6 8 10 11 10 2 0 4 -4 4 -10z m80 -170 c0 -5 -4 -10 -9 -10
-6 0 -13 5 -16 10 -3 6 1 10 9 10 9 0 16 -4 16 -10z m190 -40 c0 -5 -11 -10
-25 -10 -14 0 -25 5 -25 10 0 6 11 10 25 10 14 0 25 -4 25 -10z m-3399 -157
c-8 -14 -10 -7 -11 32 0 28 4 61 8 75 5 19 8 11 10 -32 2 -32 -2 -66 -7 -75z
m3684 107 c3 -5 -1 -10 -9 -10 -9 0 -16 5 -16 10 0 6 4 10 9 10 6 0 13 -4 16
-10z m-3688 -222 c-3 -8 -6 -5 -6 6 -1 11 2 17 5 13 3 -3 4 -12 1 -19z m13
-43 c0 -14 -2 -25 -4 -25 -2 0 -6 11 -8 25 -3 14 -1 25 3 25 5 0 9 -11 9 -25z
m3460 -80 c0 -8 -4 -15 -10 -15 -5 0 -10 7 -10 15 0 8 5 15 10 15 6 0 10 -7
10 -15z m-50 1 c0 -3 -4 -8 -10 -11 -5 -3 -10 -1 -10 4 0 6 5 11 10 11 6 0 10
-2 10 -4z m37 -42 c-3 -3 -12 -4 -19 -1 -8 3 -5 6 6 6 11 1 17 -2 13 -5z m-47
-33 c0 -6 -4 -12 -8 -15 -5 -3 -9 1 -9 9 0 8 4 15 9 15 4 0 8 -4 8 -9z m45
-11 c-3 -5 -11 -10 -16 -10 -6 0 -7 5 -4 10 3 6 11 10 16 10 6 0 7 -4 4 -10z
m-320 -610 c3 -5 -1 -10 -10 -10 -9 0 -13 5 -10 10 3 6 8 10 10 10 2 0 7 -4
10 -10z m-162 -409 c3 -14 1 -18 -9 -14 -15 6 -18 16 -7 26 9 10 10 9 16 -12z
m-10 -234 c3 -7 -3 -13 -14 -14 -15 -1 -16 1 -6 12 15 18 14 18 20 2z m-353
-681 c0 -3 -4 -8 -10 -11 -5 -3 -10 -1 -10 4 0 6 5 11 10 11 6 0 10 -2 10 -4z
m266 -337 c0 -19 -22 -15 -30 6 -3 9 2 13 12 12 10 0 18 -9 18 -18z m230 -134
c-6 -17 -26 -20 -26 -5 0 16 24 40 28 29 2 -5 1 -16 -2 -24z m-80 -5 c0 -11
-4 -20 -8 -20 -4 0 -8 9 -8 20 0 11 4 20 8 20 4 0 8 -9 8 -20z m-2 -66 c9 -24
8 -26 -14 -14 -11 6 -18 15 -15 21 9 14 22 11 29 -7z m-7994 -14316 c0 -167
-13 -226 -23 -107 -7 87 2 259 15 259 4 0 8 -69 8 -152z m14579 -1209 c17 -69
45 -164 62 -210 63 -171 81 -226 94 -294 13 -67 11 -96 -5 -78 -4 4 -17 44
-28 88 -12 44 -32 114 -45 155 -14 41 -32 102 -42 135 -9 33 -32 110 -51 172
-33 106 -45 188 -25 168 5 -6 23 -67 40 -136z"/>
<path d="M12076 26644 c-3 -9 -6 -17 -6 -18 0 -1 9 -2 20 -3 24 -2 25 3 6 22
-12 12 -15 12 -20 -1z"/>
<path d="M11945 22900 c-8 -13 5 -13 25 0 13 8 13 10 -2 10 -9 0 -20 -4 -23
-10z"/>
<path d="M15050 30540 c0 -10 -8 -23 -17 -29 -14 -8 -13 -9 8 -8 21 2 26 7 26
30 0 15 -4 27 -9 27 -4 0 -8 -9 -8 -20z"/>
<path d="M14827 30498 c-9 -31 -2 -33 11 -3 6 14 8 25 3 25 -5 0 -11 -10 -14
-22z"/>
<path d="M15203 30505 c0 -7 6 -11 14 -8 7 3 13 6 13 8 0 2 -6 5 -13 8 -8 3
-14 -1 -14 -8z"/>
<path d="M15809 30518 c0 -2 -2 -13 -3 -25 -3 -25 4 -29 22 -11 8 8 15 8 27
-2 12 -10 15 -10 15 4 0 10 -5 14 -10 11 -6 -3 -13 1 -16 9 -5 13 -32 23 -35
14z"/>
<path d="M14760 30486 c0 -7 7 -19 16 -27 13 -10 17 -10 24 1 4 7 6 19 3 27
-7 17 -43 17 -43 -1z"/>
<path d="M15250 30485 c-7 -9 -8 -15 -2 -15 5 0 12 7 16 15 3 8 4 15 2 15 -2
0 -9 -7 -16 -15z"/>
<path d="M14728 30463 c7 -3 16 -2 19 1 4 3 -2 6 -13 5 -11 0 -14 -3 -6 -6z"/>
<path d="M15827 30449 c7 -7 15 -10 18 -7 3 3 -2 9 -12 12 -14 6 -15 5 -6 -5z"/>
<path d="M14735 30440 c-3 -5 -1 -10 4 -10 6 0 11 5 11 10 0 6 -2 10 -4 10 -3
0 -8 -4 -11 -10z"/>
<path d="M15673 30425 c-8 -22 6 -33 17 -15 13 20 12 30 0 30 -6 0 -13 -7 -17
-15z"/>
<path d="M15731 30394 c0 -11 3 -14 6 -6 3 7 2 16 -1 19 -3 4 -6 -2 -5 -13z"/>
<path d="M15476 30391 c-3 -5 0 -11 8 -14 15 -6 26 1 26 15 0 11 -27 10 -34
-1z"/>
<path d="M15700 30389 c0 -5 5 -7 10 -4 6 3 10 8 10 11 0 2 -4 4 -10 4 -5 0
-10 -5 -10 -11z"/>
<path d="M14790 30265 c-8 -9 -8 -15 -2 -15 12 0 26 19 19 26 -2 2 -10 -2 -17
-11z"/>
<path d="M14580 30240 c0 -5 5 -10 11 -10 5 0 7 5 4 10 -3 6 -8 10 -11 10 -2
0 -4 -4 -4 -10z"/>
<path d="M14570 30170 c0 -6 7 -10 15 -10 8 0 15 2 15 4 0 2 -7 6 -15 10 -8 3
-15 1 -15 -4z"/>
<path d="M14460 30159 c0 -5 5 -7 10 -4 6 3 10 8 10 11 0 2 -4 4 -10 4 -5 0
-10 -5 -10 -11z"/>
<path d="M16190 30090 c0 -5 7 -7 15 -4 8 4 15 8 15 10 0 2 -7 4 -15 4 -8 0
-15 -4 -15 -10z"/>
<path d="M14405 30070 c-3 -5 -2 -10 4 -10 5 0 13 5 16 10 3 6 2 10 -4 10 -5
0 -13 -4 -16 -10z"/>
<path d="M16230 29959 c0 -5 5 -7 10 -4 6 3 10 8 10 11 0 2 -4 4 -10 4 -5 0
-10 -5 -10 -11z"/>
<path d="M14506 29924 c-10 -25 -7 -31 15 -37 15 -4 19 -2 15 10 -3 8 -6 21
-6 29 0 19 -16 18 -24 -2z"/>
<path d="M13940 29770 c0 -5 5 -10 11 -10 5 0 7 5 4 10 -3 6 -8 10 -11 10 -2
0 -4 -4 -4 -10z"/>
<path d="M13820 29690 c0 -5 5 -10 11 -10 5 0 7 5 4 10 -3 6 -8 10 -11 10 -2
0 -4 -4 -4 -10z"/>
<path d="M14321 29684 c0 -11 3 -14 6 -6 3 7 2 16 -1 19 -3 4 -6 -2 -5 -13z"/>
<path d="M14085 29680 c-3 -5 -2 -10 4 -10 5 0 13 5 16 10 3 6 2 10 -4 10 -5
0 -13 -4 -16 -10z"/>
<path d="M13876 29653 c-11 -11 -6 -23 9 -23 8 0 15 4 15 9 0 13 -16 22 -24
14z"/>
<path d="M13595 29630 c-3 -6 1 -7 9 -4 18 7 21 14 7 14 -6 0 -13 -4 -16 -10z"/>
<path d="M13850 29610 c0 -5 7 -10 16 -10 8 0 12 5 9 10 -3 6 -10 10 -16 10
-5 0 -9 -4 -9 -10z"/>
<path d="M14143 29594 c-3 -9 0 -20 8 -25 8 -5 10 -9 5 -9 -5 0 -17 7 -26 15
-14 13 -18 12 -32 -4 -15 -18 -15 -20 5 -26 12 -4 28 -6 35 -6 6 1 12 -5 12
-13 0 -9 8 -14 21 -13 14 1 19 7 16 18 -4 15 2 14 38 -7 42 -23 43 -23 48 -4
4 17 2 18 -14 9 -13 -7 -19 -6 -19 1 0 6 7 13 15 16 8 4 15 10 15 15 0 4 -7 6
-15 3 -11 -5 -13 -2 -9 10 4 11 1 16 -11 16 -9 0 -13 5 -10 10 4 6 -10 10 -35
10 -28 0 -43 -5 -47 -16z"/>
<path d="M13930 29590 c0 -5 5 -10 10 -10 6 0 10 5 10 10 0 6 -4 10 -10 10 -5
0 -10 -4 -10 -10z"/>
<path d="M14070 29590 c0 -5 5 -10 10 -10 6 0 10 5 10 10 0 6 -4 10 -10 10 -5
0 -10 -4 -10 -10z"/>
<path d="M13353 29583 c-18 -7 -16 -23 2 -23 8 0 15 7 15 15 0 8 -1 15 -2 14
-2 0 -9 -3 -15 -6z"/>
<path d="M13508 29571 c-10 -3 -14 -11 -10 -18 5 -7 13 -9 21 -4 19 12 10 30
-11 22z"/>
<path d="M13911 29552 c14 -20 20 -36 14 -40 -6 -4 -15 -16 -21 -27 -9 -15
-20 -19 -44 -17 -25 3 -33 -1 -37 -17 -3 -12 -9 -21 -14 -21 -5 0 -6 7 -2 16
3 9 0 20 -8 25 -10 5 -16 3 -21 -9 -5 -13 -7 -12 -8 8 l-1 25 -10 -25 c-8 -21
-6 -28 11 -42 12 -10 19 -22 15 -28 -3 -6 -8 -22 -11 -35 -3 -20 0 -25 16 -25
11 0 20 -5 20 -11 0 -5 -4 -7 -10 -4 -5 3 -10 1 -10 -4 0 -15 17 -14 44 5 16
10 26 12 31 4 3 -6 11 -8 16 -5 14 9 51 -21 66 -52 7 -17 11 -19 8 -7 -3 11 2
49 10 83 14 53 14 65 2 90 -12 24 -12 29 2 42 40 35 44 46 22 68 -16 16 -26
19 -44 12 -18 -7 -29 -5 -42 7 -10 10 -7 2 6 -16z m62 -17 c9 -21 -9 -27 -24
-8 -10 12 -10 14 -1 9 6 -4 12 -2 12 3 0 16 7 13 13 -4z m-23 -44 c0 -5 -7
-12 -16 -15 -14 -5 -15 -4 -4 9 14 17 20 19 20 6z m-38 -61 c3 -16 1 -30 -4
-30 -4 0 -8 14 -8 30 0 17 2 30 4 30 2 0 6 -13 8 -30z m-32 0 c0 -11 -7 -20
-15 -20 -27 0 -18 30 13 39 1 1 2 -8 2 -19z m18 -66 c0 -24 -1 -24 -19 -8 -11
9 -19 23 -19 30 0 7 8 10 19 7 12 -3 19 -14 19 -29z"/>
<path d="M14005 29570 c-3 -5 1 -10 9 -10 9 0 16 -5 16 -12 0 -9 3 -9 11 -1 6
6 8 16 5 22 -9 14 -33 14 -41 1z"/>
<path d="M13480 29523 c0 -12 5 -25 10 -28 13 -8 13 15 0 35 -8 12 -10 11 -10
-7z"/>
<path d="M14050 29530 c0 -5 5 -10 10 -10 6 0 10 5 10 10 0 6 -4 10 -10 10 -5
0 -10 -4 -10 -10z"/>
<path d="M14026 29491 c-4 -7 -5 -15 -2 -18 9 -9 19 4 14 18 -4 11 -6 11 -12
0z"/>
<path d="M14160 29480 c0 -5 4 -10 9 -10 6 0 13 5 16 10 3 6 -1 10 -9 10 -9 0
-16 -4 -16 -10z"/>
<path d="M13987 29459 c7 -7 15 -10 18 -7 3 3 -2 9 -12 12 -14 6 -15 5 -6 -5z"/>
<path d="M14050 29451 c0 -5 5 -13 10 -16 6 -3 10 -2 10 4 0 5 -4 13 -10 16
-5 3 -10 2 -10 -4z"/>
<path d="M13410 29329 c0 -5 5 -7 10 -4 6 3 10 8 10 11 0 2 -4 4 -10 4 -5 0
-10 -5 -10 -11z"/>
<path d="M13873 29293 c-7 -2 -13 -12 -13 -21 1 -14 3 -14 16 3 12 17 16 18
24 5 5 -8 12 -11 17 -7 4 5 1 12 -7 17 -16 11 -19 11 -37 3z"/>
<path d="M13710 29250 c0 -5 5 -10 10 -10 6 0 10 5 10 10 0 6 -4 10 -10 10 -5
0 -10 -4 -10 -10z"/>
<path d="M13746 29225 c-19 -15 -19 -15 2 -15 13 0 22 6 22 15 0 18 0 18 -24
0z"/>
<path d="M13545 29200 c3 -5 10 -10 16 -10 5 0 9 5 9 10 0 6 -7 10 -16 10 -8
0 -12 -4 -9 -10z"/>
<path d="M13490 29169 c0 -18 2 -19 15 -9 15 12 12 30 -6 30 -5 0 -9 -10 -9
-21z"/>
<path d="M13616 29075 c-3 -8 -1 -15 4 -15 6 0 10 7 10 15 0 8 -2 15 -4 15 -2
0 -6 -7 -10 -15z"/>
<path d="M13695 29021 c-3 -5 -1 -12 5 -16 5 -3 10 1 10 9 0 18 -6 21 -15 7z"/>
<path d="M13830 29010 c0 -5 5 -10 10 -10 6 0 10 5 10 10 0 6 -4 10 -10 10 -5
0 -10 -4 -10 -10z"/>
<path d="M13790 28996 c0 -2 7 -9 15 -16 9 -7 15 -8 15 -2 0 5 -7 12 -15 16
-8 3 -15 4 -15 2z"/>
<path d="M13747 28930 c-20 -38 -21 -50 -7 -50 6 0 10 7 10 15 0 7 6 18 14 22
8 5 11 15 6 27 -6 18 -9 16 -23 -14z"/>
<path d="M13695 28920 c-3 -5 -1 -10 4 -10 6 0 11 5 11 10 0 6 -2 10 -4 10 -3
0 -8 -4 -11 -10z"/>
<path d="M13750 28852 c0 -4 13 -12 29 -18 25 -10 28 -9 24 5 -4 16 -53 28
-53 13z"/>
<path d="M13940 28670 c0 -5 5 -10 11 -10 5 0 7 5 4 10 -3 6 -8 10 -11 10 -2
0 -4 -4 -4 -10z"/>
<path d="M14008 28643 c7 -3 16 -2 19 1 4 3 -2 6 -13 5 -11 0 -14 -3 -6 -6z"/>
<path d="M13886 28604 c-9 -22 -8 -24 9 -24 8 0 15 6 15 14 0 22 -17 28 -24
10z"/>
<path d="M13980 28590 c0 -5 5 -10 10 -10 6 0 10 5 10 10 0 6 -4 10 -10 10 -5
0 -10 -4 -10 -10z"/>
<path d="M13942 28560 c0 -14 2 -19 5 -12 2 6 2 18 0 25 -3 6 -5 1 -5 -13z"/>
<path d="M13890 28559 c0 -5 -4 -7 -10 -4 -5 3 -10 2 -10 -3 0 -14 26 -33 33
-25 11 10 8 43 -3 43 -5 0 -10 -5 -10 -11z"/>
<path d="M16676 28525 c4 -8 8 -15 10 -15 2 0 4 7 4 15 0 8 -4 15 -10 15 -5 0
-7 -7 -4 -15z"/>
<path d="M13977 28523 c-22 -6 -12 -23 14 -23 10 0 19 7 19 15 0 15 -2 16 -33
8z"/>
<path d="M13876 28463 c6 -4 14 -15 17 -23 5 -11 6 -9 4 4 -1 11 -9 21 -17 23
-10 3 -11 2 -4 -4z"/>
<path d="M13935 28427 c-7 -27 -25 -38 -25 -15 0 6 -3 9 -6 5 -4 -3 -4 -13 0
-22 4 -12 10 -14 25 -6 23 13 32 34 21 51 -6 10 -10 7 -15 -13z"/>
<path d="M13806 28424 c-5 -14 -4 -15 9 -4 17 14 19 20 6 20 -5 0 -12 -7 -15
-16z"/>
<path d="M13830 28320 c0 -5 9 -10 20 -10 11 0 20 5 20 10 0 6 -9 10 -20 10
-11 0 -20 -4 -20 -10z"/>
<path d="M13631 28104 c0 -11 3 -14 6 -6 3 7 2 16 -1 19 -3 4 -6 -2 -5 -13z"/>
<path d="M12865 27980 c-3 -5 1 -10 10 -10 9 0 13 5 10 10 -3 6 -8 10 -10 10
-2 0 -7 -4 -10 -10z"/>
<path d="M13450 27980 c0 -5 7 -10 16 -10 8 0 12 5 9 10 -3 6 -10 10 -16 10
-5 0 -9 -4 -9 -10z"/>
<path d="M12870 27942 c0 -5 9 -12 21 -15 13 -3 19 -1 16 6 -5 15 -37 22 -37
9z"/>
<path d="M12662 27918 c-6 -16 -16 -28 -22 -28 -5 0 -10 -4 -10 -10 0 -5 7
-10 15 -10 9 0 19 -10 24 -22 l8 -22 5 22 c4 12 1 22 -4 22 -7 0 -7 4 -1 13 5
6 7 23 3 37 l-7 25 -11 -27z"/>
<path d="M15398 27923 c7 -3 16 -2 19 1 4 3 -2 6 -13 5 -11 0 -14 -3 -6 -6z"/>
<path d="M15341 27888 c-1 -10 -5 -18 -11 -18 -5 0 -10 -8 -10 -18 0 -10 -7
-28 -16 -40 -15 -21 -14 -22 12 -22 41 0 22 -10 -22 -12 -21 -1 -33 -3 -26 -6
6 -2 12 -10 12 -18 0 -16 16 -19 25 -4 5 8 11 7 21 -1 20 -17 17 -31 -5 -24
-11 3 -22 1 -25 -4 -4 -5 8 -12 26 -16 18 -4 41 -9 51 -11 9 -3 17 0 17 6 0 6
-4 9 -8 6 -4 -2 -14 0 -22 5 -11 6 -5 8 19 4 18 -3 39 -1 46 5 10 9 16 6 24
-9 6 -11 10 -26 9 -32 -2 -7 11 -17 27 -22 34 -11 57 -19 98 -36 34 -14 34 -8
-3 39 -16 21 -30 42 -30 48 0 6 -6 12 -12 15 -20 7 -2 20 19 13 10 -3 30 -17
45 -31 36 -33 42 -32 23 5 -9 17 -22 30 -30 30 -7 0 -22 14 -32 30 -9 17 -23
30 -30 30 -7 0 -13 6 -13 14 0 10 -10 14 -35 13 -35 -2 -46 -11 -22 -20 6 -2
9 -8 5 -12 -4 -4 -16 -1 -27 7 -18 13 -19 17 -7 39 11 22 10 27 -10 42 -21 16
-22 15 -28 -8 -8 -33 -30 -32 -43 3 -7 18 -11 21 -12 10z m164 -137 c10 -17
-11 -21 -31 -6 -18 14 -18 14 3 15 12 0 24 -4 28 -9z"/>
<path d="M15504 27883 c4 -10 4 -14 0 -11 -4 4 -16 2 -27 -3 -28 -16 -2 -29
29 -15 28 13 31 31 8 40 -12 5 -15 2 -10 -11z"/>
<path d="M12499 27863 c-13 -16 -12 -17 4 -4 9 7 17 15 17 17 0 8 -8 3 -21
-13z"/>
<path d="M12611 27843 c0 -16 3 -22 6 -15 2 6 11 12 19 12 19 0 18 16 -2 24
-23 9 -24 8 -23 -21z"/>
<path d="M12580 27849 c0 -5 5 -7 10 -4 6 3 10 8 10 11 0 2 -4 4 -10 4 -5 0
-10 -5 -10 -11z"/>
<path d="M13850 27839 c0 -5 5 -7 10 -4 6 3 10 8 10 11 0 2 -4 4 -10 4 -5 0
-10 -5 -10 -11z"/>
<path d="M15558 27839 c-19 -11 -24 -29 -9 -29 5 0 17 7 25 16 10 9 24 13 36
9 11 -4 20 -2 20 4 0 14 -49 14 -72 0z"/>
<path d="M14843 27833 c-7 -2 -13 -12 -13 -20 0 -10 -6 -14 -20 -10 -11 3 -23
1 -26 -4 -3 -5 -15 -9 -27 -9 -15 0 -18 -3 -10 -8 23 -15 85 -1 90 19 4 14 15
19 37 19 24 0 27 3 16 10 -16 10 -28 11 -47 3z"/>
<path d="M15590 27816 c0 -2 7 -7 16 -10 8 -3 12 -2 9 4 -6 10 -25 14 -25 6z"/>
<path d="M12478 27775 c-3 -14 -2 -25 2 -25 11 0 20 39 10 45 -4 3 -10 -6 -12
-20z"/>
<path d="M15645 27780 c-7 -12 36 -30 71 -30 14 0 22 -4 19 -10 -3 -5 7 -12
22 -16 15 -4 40 -20 55 -35 28 -30 48 -37 48 -18 0 17 -51 63 -103 94 -41 23
-51 26 -59 14 -7 -11 -11 -11 -15 -1 -6 14 -29 16 -38 2z"/>
<path d="M13046 27771 c-3 -5 1 -11 9 -15 15 -6 29 7 18 18 -9 9 -21 8 -27 -3z"/>
<path d="M13360 27735 c7 -9 15 -13 17 -11 7 7 -7 26 -19 26 -6 0 -6 -6 2 -15z"/>
<path d="M13010 27730 c0 -13 11 -13 30 0 12 8 11 10 -7 10 -13 0 -23 -4 -23
-10z"/>
<path d="M15688 27693 c7 -3 16 -2 19 1 4 3 -2 6 -13 5 -11 0 -14 -3 -6 -6z"/>
<path d="M15414 27675 c21 -16 32 -13 21 4 -3 6 -14 11 -23 11 -15 -1 -15 -2
2 -15z"/>
<path d="M15642 27655 c3 -15 39 -37 159 -97 40 -20 49 -22 49 -10 0 13 -89
65 -203 120 -5 2 -7 -3 -5 -13z"/>
<path d="M13385 27630 c-3 -5 -1 -10 4 -10 6 0 11 5 11 10 0 6 -2 10 -4 10 -3
0 -8 -4 -11 -10z"/>
<path d="M15630 27600 c0 -5 5 -10 11 -10 5 0 7 5 4 10 -3 6 -8 10 -11 10 -2
0 -4 -4 -4 -10z"/>
<path d="M13020 27580 c0 -5 5 -10 10 -10 6 0 10 5 10 10 0 6 -4 10 -10 10 -5
0 -10 -4 -10 -10z"/>
<path d="M13372 27578 c6 -18 28 -21 28 -4 0 9 -7 16 -16 16 -9 0 -14 -5 -12
-12z"/>
<path d="M13115 27571 c-6 -11 9 -23 19 -14 9 9 7 23 -3 23 -6 0 -12 -4 -16
-9z"/>
<path d="M15880 27566 c0 -6 109 -56 121 -56 5 0 6 6 3 14 -9 23 -124 62 -124
42z"/>
<path d="M13091 27534 c0 -11 3 -14 6 -6 3 7 2 16 -1 19 -3 4 -6 -2 -5 -13z"/>
<path d="M13163 27535 c-3 -9 -3 -18 -1 -21 3 -3 8 4 11 16 6 23 -1 27 -10 5z"/>
<path d="M13260 27540 c0 -5 6 -10 14 -10 8 0 16 -5 18 -12 3 -7 9 -8 18 -3
10 6 9 11 -5 22 -22 15 -45 17 -45 3z"/>
<path d="M13225 27529 c-4 -6 -5 -12 -2 -15 2 -3 7 2 10 11 7 17 1 20 -8 4z"/>
<path d="M13241 27494 c0 -11 3 -14 6 -6 3 7 2 16 -1 19 -3 4 -6 -2 -5 -13z"/>
<path d="M13015 27490 c-3 -5 -1 -10 4 -10 6 0 11 5 11 10 0 6 -2 10 -4 10 -3
0 -8 -4 -11 -10z"/>
<path d="M15678 27473 c7 -3 16 -2 19 1 4 3 -2 6 -13 5 -11 0 -14 -3 -6 -6z"/>
<path d="M13067 27443 c-4 -3 -7 -11 -7 -17 0 -6 5 -5 12 2 6 6 9 14 7 17 -3
3 -9 2 -12 -2z"/>
<path d="M13276 27425 c-7 -28 27 -85 39 -65 3 5 3 10 -1 10 -3 0 -1 6 5 13 6
8 8 17 4 21 -4 4 -8 15 -8 24 0 28 -32 26 -39 -3z"/>
<path d="M12900 27429 c0 -5 5 -7 10 -4 6 3 10 8 10 11 0 2 -4 4 -10 4 -5 0
-10 -5 -10 -11z"/>
<path d="M15568 27344 c33 -14 57 -11 47 7 -4 5 -23 9 -43 8 l-37 -1 33 -14z"/>
<path d="M15780 27345 c0 -16 9 -19 34 -9 25 9 19 24 -9 24 -16 0 -25 -6 -25
-15z"/>
<path d="M15655 27340 c-4 -6 15 -10 49 -10 31 0 56 5 56 10 0 6 -22 10 -49
10 -28 0 -53 -4 -56 -10z"/>
<path d="M15114 27308 c-5 -7 -3 -8 6 -3 7 4 16 2 21 -6 4 -7 11 -10 16 -6 4
5 1 12 -7 17 -20 13 -27 12 -36 -2z"/>
<path d="M14030 27289 c0 -5 5 -7 10 -4 6 3 10 8 10 11 0 2 -4 4 -10 4 -5 0
-10 -5 -10 -11z"/>
<path d="M16068 27293 c6 -2 18 -2 25 0 6 3 1 5 -13 5 -14 0 -19 -2 -12 -5z"/>
<path d="M16138 27273 c7 -3 16 -2 19 1 4 3 -2 6 -13 5 -11 0 -14 -3 -6 -6z"/>
<path d="M14626 27255 c4 -8 10 -12 15 -9 11 6 2 24 -11 24 -5 0 -7 -7 -4 -15z"/>
<path d="M15150 27260 c0 -5 5 -10 10 -10 6 0 10 5 10 10 0 6 -4 10 -10 10 -5
0 -10 -4 -10 -10z"/>
<path d="M15088 27253 c7 -3 16 -2 19 1 4 3 -2 6 -13 5 -11 0 -14 -3 -6 -6z"/>
<path d="M15090 27121 c0 -6 4 -13 10 -16 6 -3 7 1 4 9 -7 18 -14 21 -14 7z"/>
<path d="M13980 26925 c0 -8 4 -15 10 -15 5 0 7 7 4 15 -4 8 -8 15 -10 15 -2
0 -4 -7 -4 -15z"/>
<path d="M13961 26904 c0 -11 3 -14 6 -6 3 7 2 16 -1 19 -3 4 -6 -2 -5 -13z"/>
<path d="M13055 26900 c-3 -5 1 -10 9 -10 9 0 16 5 16 10 0 6 -4 10 -9 10 -6
0 -13 -4 -16 -10z"/>
<path d="M13980 26890 c0 -5 5 -10 10 -10 6 0 10 5 10 10 0 6 -4 10 -10 10 -5
0 -10 -4 -10 -10z"/>
<path d="M13227 26822 c-23 -26 -21 -102 3 -102 19 0 42 22 38 36 -1 5 2 19 6
32 5 14 3 28 -4 37 -16 19 -23 19 -43 -3z"/>
<path d="M17151 26593 c0 -25 1 -26 9 -8 12 27 12 35 0 35 -5 0 -10 -12 -9
-27z"/>
<path d="M9447 26503 c-11 -11 -8 -23 6 -23 8 0 14 7 14 15 0 16 -9 19 -20 8z"/>
<path d="M9550 26470 c0 -5 4 -10 9 -10 6 0 13 5 16 10 3 6 -1 10 -9 10 -9 0
-16 -4 -16 -10z"/>
<path d="M9590 26431 c0 -5 7 -12 16 -15 14 -5 15 -4 4 9 -14 17 -20 19 -20 6z"/>
<path d="M9325 26417 c-21 -24 -26 -37 -13 -32 15 6 42 45 31 45 -5 -1 -13 -6
-18 -13z"/>
<path d="M9664 26411 c4 -6 1 -11 -6 -11 -8 0 -7 -5 4 -16 9 -9 21 -14 26 -10
16 10 7 41 -13 44 -11 3 -15 0 -11 -7z"/>
<path d="M9595 26380 c-3 -6 1 -7 9 -4 18 7 21 14 7 14 -6 0 -13 -4 -16 -10z"/>
<path d="M9654 26315 c4 -24 16 -30 16 -7 0 12 -4 22 -9 22 -5 0 -8 -7 -7 -15z"/>
<path d="M13803 26322 c-8 -5 -9 -13 -3 -22 7 -12 10 -12 16 3 8 21 3 29 -13
19z"/>
<path d="M9655 26270 c-3 -5 -1 -10 4 -10 6 0 11 5 11 10 0 6 -2 10 -4 10 -3
0 -8 -4 -11 -10z"/>
<path d="M13688 26255 c-33 -18 -37 -52 -12 -95 15 -24 20 -26 51 -20 43 10
40 7 51 57 7 30 6 45 -2 52 -22 18 -61 21 -88 6z"/>
<path d="M9648 26223 c7 -3 16 -2 19 1 4 3 -2 6 -13 5 -11 0 -14 -3 -6 -6z"/>
<path d="M9288 26213 c7 -3 16 -2 19 1 4 3 -2 6 -13 5 -11 0 -14 -3 -6 -6z"/>
<path d="M9246 26155 c-3 -8 -1 -15 4 -15 6 0 10 7 10 15 0 8 -2 15 -4 15 -2
0 -6 -7 -10 -15z"/>
<path d="M9214 26107 c-3 -10 -1 -23 5 -31 6 -7 7 -17 3 -22 -4 -4 0 -3 10 4
18 14 18 36 0 54 -9 9 -13 7 -18 -5z"/>
<path d="M16180 25950 c0 -5 5 -10 11 -10 5 0 7 5 4 10 -3 6 -8 10 -11 10 -2
0 -4 -4 -4 -10z"/>
<path d="M9720 25925 c0 -9 6 -12 15 -9 8 4 15 7 15 9 0 2 -7 5 -15 9 -9 3
-15 0 -15 -9z"/>
<path d="M9770 25890 c0 -5 5 -10 10 -10 6 0 10 5 10 10 0 6 -4 10 -10 10 -5
0 -10 -4 -10 -10z"/>
<path d="M16306 25851 c-4 -7 -5 -15 -2 -18 9 -9 19 4 14 18 -4 11 -6 11 -12
0z"/>
<path d="M10040 25669 c0 -5 5 -7 10 -4 6 3 10 8 10 11 0 2 -4 4 -10 4 -5 0
-10 -5 -10 -11z"/>
<path d="M10095 25639 c-4 -6 -5 -12 -2 -15 2 -3 7 2 10 11 7 17 1 20 -8 4z"/>
<path d="M9895 25630 c-3 -5 -2 -10 4 -10 5 0 13 5 16 10 3 6 2 10 -4 10 -5 0
-13 -4 -16 -10z"/>
<path d="M14055 25410 c-3 -5 -1 -10 4 -10 6 0 11 5 11 10 0 6 -2 10 -4 10 -3
0 -8 -4 -11 -10z"/>
<path d="M14170 25370 c-13 -8 -12 -10 3 -10 9 0 17 5 17 10 0 12 -1 12 -20 0z"/>
<path d="M15655 25349 c-4 -6 -3 -15 3 -21 6 -6 11 -4 15 6 7 18 -9 31 -18 15z"/>
<path d="M15648 25283 c7 -3 16 -2 19 1 4 3 -2 6 -13 5 -11 0 -14 -3 -6 -6z"/>
<path d="M10185 25140 c4 -6 11 -8 16 -5 14 9 11 15 -7 15 -8 0 -12 -5 -9 -10z"/>
<path d="M14345 25071 c-3 -5 -1 -12 5 -16 6 -4 8 -10 5 -15 -3 -4 4 -10 15
-13 23 -6 24 -6 8 28 -12 26 -23 32 -33 16z"/>
<path d="M13470 25010 c0 -5 5 -10 10 -10 6 0 10 5 10 10 0 6 -4 10 -10 10 -5
0 -10 -4 -10 -10z"/>
<path d="M14430 24999 c0 -5 5 -7 10 -4 6 3 10 8 10 11 0 2 -4 4 -10 4 -5 0
-10 -5 -10 -11z"/>
<path d="M17362 24989 c-11 -30 -22 -169 -13 -169 8 0 33 181 27 188 -3 3 -9
-6 -14 -19z"/>
<path d="M15428 24988 c5 -5 16 -8 23 -6 8 3 3 7 -10 11 -17 4 -21 3 -13 -5z"/>
<path d="M13415 24970 c4 -6 11 -8 16 -5 14 9 11 15 -7 15 -8 0 -12 -5 -9 -10z"/>
<path d="M15380 24960 c0 -5 5 -10 11 -10 5 0 7 5 4 10 -3 6 -8 10 -11 10 -2
0 -4 -4 -4 -10z"/>
<path d="M15350 24919 c0 -5 5 -7 10 -4 6 3 10 8 10 11 0 2 -4 4 -10 4 -5 0
-10 -5 -10 -11z"/>
<path d="M15381 24884 c0 -11 3 -14 6 -6 3 7 2 16 -1 19 -3 4 -6 -2 -5 -13z"/>
<path d="M15294 24875 c15 -8 33 -12 39 -8 12 7 -17 21 -48 22 -16 1 -14 -2 9
-14z"/>
<path d="M14390 24855 c27 -14 36 -13 25 4 -3 6 -16 11 -28 11 -21 -1 -21 -1
3 -15z"/>
<path d="M15546 24845 c-20 -15 -20 -15 0 -30 25 -19 40 -19 48 1 17 43 -9 59
-48 29z"/>
<path d="M15180 24825 c-12 -15 -6 -35 12 -35 5 0 8 7 4 15 -3 8 -1 15 4 15 6
0 10 5 10 10 0 15 -16 12 -30 -5z"/>
<path d="M15355 24830 c3 -5 8 -10 11 -10 2 0 4 5 4 10 0 6 -5 10 -11 10 -5 0
-7 -4 -4 -10z"/>
<path d="M15270 24790 c0 -5 5 -10 11 -10 5 0 7 5 4 10 -3 6 -8 10 -11 10 -2
0 -4 -4 -4 -10z"/>
<path d="M13351 24714 c0 -11 3 -14 6 -6 3 7 2 16 -1 19 -3 4 -6 -2 -5 -13z"/>
<path d="M9654 24689 c-3 -6 0 -18 9 -26 19 -20 57 -8 57 18 0 14 -7 19 -29
19 -17 0 -33 -5 -37 -11z"/>
<path d="M15148 24686 c-8 -8 -23 -16 -34 -19 -17 -4 -17 -5 3 -6 12 0 24 -7
27 -13 4 -9 10 -6 22 10 9 12 24 22 33 23 12 0 11 2 -4 9 -28 12 -32 12 -47
-4z"/>
<path d="M10340 24680 c0 -5 5 -10 10 -10 6 0 10 5 10 10 0 6 -4 10 -10 10 -5
0 -10 -4 -10 -10z"/>
<path d="M13990 24650 c0 -5 5 -10 10 -10 6 0 10 5 10 10 0 6 -4 10 -10 10 -5
0 -10 -4 -10 -10z"/>
<path d="M14320 24649 c0 -5 5 -7 10 -4 6 3 10 8 10 11 0 2 -4 4 -10 4 -5 0
-10 -5 -10 -11z"/>
<path d="M10140 24624 c0 -17 22 -14 28 4 2 7 -3 12 -12 12 -9 0 -16 -7 -16
-16z"/>
<path d="M10282 24621 c-11 -7 -11 -9 0 -13 17 -6 38 1 38 13 0 11 -21 11 -38
0z"/>
<path d="M14017 24624 c-10 -11 11 -41 32 -47 10 -2 25 -1 32 4 11 7 10 9 -3
9 -10 0 -23 9 -30 20 -13 21 -21 24 -31 14z"/>
<path d="M10410 24500 c0 -5 4 -10 9 -10 6 0 13 5 16 10 3 6 -1 10 -9 10 -9 0
-16 -4 -16 -10z"/>
<path d="M9460 24490 c0 -5 5 -10 11 -10 5 0 7 5 4 10 -3 6 -8 10 -11 10 -2 0
-4 -4 -4 -10z"/>
<path d="M13200 24324 c0 -14 4 -23 9 -20 5 3 7 15 4 26 -7 28 -13 25 -13 -6z"/>
<path d="M9975 24300 c-3 -5 -1 -10 4 -10 6 0 11 5 11 10 0 6 -2 10 -4 10 -3
0 -8 -4 -11 -10z"/>
<path d="M13131 24294 c0 -11 3 -14 6 -6 3 7 2 16 -1 19 -3 4 -6 -2 -5 -13z"/>
<path d="M13220 24239 c0 -18 2 -19 15 -9 8 7 15 16 15 21 0 5 -7 9 -15 9 -9
0 -15 -9 -15 -21z"/>
<path d="M9667 24243 c-3 -5 -7 -29 -11 -54 -5 -35 -3 -49 8 -58 8 -7 19 -10
25 -7 13 8 24 81 16 106 -6 20 -30 27 -38 13z"/>
<path d="M9438 24203 c6 -2 18 -2 25 0 6 3 1 5 -13 5 -14 0 -19 -2 -12 -5z"/>
<path d="M10260 24143 c0 -5 5 -15 10 -23 8 -12 10 -11 10 8 0 12 -4 22 -10
22 -5 0 -10 -3 -10 -7z"/>
<path d="M10302 24139 c2 -7 10 -15 17 -17 8 -3 12 1 9 9 -2 7 -10 15 -17 17
-8 3 -12 -1 -9 -9z"/>
<path d="M10397 24085 c6 -17 25 -15 31 3 2 7 -5 12 -17 12 -14 0 -19 -5 -14
-15z"/>
<path d="M10435 24019 c-4 -6 -5 -12 -2 -15 2 -3 7 2 10 11 7 17 1 20 -8 4z"/>
<path d="M10060 23960 c0 -5 5 -10 10 -10 6 0 10 5 10 10 0 6 -4 10 -10 10 -5
0 -10 -4 -10 -10z"/>
<path d="M13775 23894 c-27 -9 -76 -21 -109 -29 -69 -16 -116 -34 -116 -45 0
-18 31 -31 74 -32 25 0 46 -5 46 -10 0 -5 3 -7 8 -4 4 2 30 -2 59 -9 28 -7 88
-15 132 -17 l81 -3 11 -33 c9 -26 8 -37 -5 -57 -9 -14 -20 -25 -25 -25 -5 0
-6 -12 -2 -27 6 -25 13 -29 57 -34 27 -3 60 -4 74 -3 14 2 54 6 90 10 35 4 70
13 78 20 7 8 22 14 33 14 28 0 68 38 62 60 -4 15 -14 19 -48 18 -56 -1 -66 7
-63 46 3 46 -45 109 -102 135 -94 42 -241 53 -335 25z"/>
<path d="M15300 23901 c0 -6 4 -13 10 -16 6 -3 7 1 4 9 -7 18 -14 21 -14 7z"/>
<path d="M10310 23850 c0 -5 5 -10 10 -10 6 0 10 5 10 10 0 6 -4 10 -10 10 -5
0 -10 -4 -10 -10z"/>
<path d="M10180 23790 c0 -5 5 -10 11 -10 5 0 7 5 4 10 -3 6 -8 10 -11 10 -2
0 -4 -4 -4 -10z"/>
<path d="M14389 23754 c-13 -14 -35 -30 -48 -35 -29 -12 -23 -20 17 -21 36 -1
94 23 87 37 -3 5 -8 18 -11 28 -8 23 -16 22 -45 -9z"/>
<path d="M14460 23720 c0 -5 5 -10 10 -10 6 0 10 5 10 10 0 6 -4 10 -10 10 -5
0 -10 -4 -10 -10z"/>
<path d="M13220 23690 c-11 -11 -19 -30 -19 -42 1 -17 3 -18 6 -6 2 10 10 15
19 11 9 -3 14 2 14 17 0 16 4 20 15 16 8 -3 15 -1 15 3 0 19 -32 19 -50 1z"/>
<path d="M13130 23674 c0 -8 5 -12 10 -9 6 3 10 10 10 16 0 5 -4 9 -10 9 -5 0
-10 -7 -10 -16z"/>
<path d="M9910 23670 c0 -5 5 -10 10 -10 6 0 10 5 10 10 0 6 -4 10 -10 10 -5
0 -10 -4 -10 -10z"/>
<path d="M17055 23630 c-3 -5 -1 -10 4 -10 6 0 11 5 11 10 0 6 -2 10 -4 10 -3
0 -8 -4 -11 -10z"/>
<path d="M9900 23609 c0 -11 5 -17 10 -14 6 3 10 13 10 21 0 8 -4 14 -10 14
-5 0 -10 -9 -10 -21z"/>
<path d="M9645 23589 c-4 -6 0 -18 9 -27 15 -15 16 -15 16 5 0 25 -15 38 -25
22z"/>
<path d="M9991 23595 c-1 -5 8 -23 19 -40 14 -21 20 -25 20 -12 0 9 -4 17 -8
17 -5 0 -14 10 -20 23 -6 12 -11 18 -11 12z"/>
<path d="M15432 23541 c2 -7 7 -12 11 -12 12 1 9 15 -3 20 -7 2 -11 -2 -8 -8z"/>
<path d="M9640 23509 c-7 -11 -9 -24 -5 -27 7 -7 35 25 35 40 0 16 -19 8 -30
-13z"/>
<path d="M17053 23483 c-15 -30 -18 -139 -5 -147 14 -9 48 21 62 53 6 16 19
31 27 33 9 2 0 17 -29 45 l-43 42 -12 -26z"/>
<path d="M13856 23424 c-20 -19 -20 -34 -1 -34 18 0 39 36 26 44 -5 4 -17 -1
-25 -10z"/>
<path d="M15535 23430 c3 -5 8 -10 11 -10 2 0 4 5 4 10 0 6 -5 10 -11 10 -5 0
-7 -4 -4 -10z"/>
<path d="M9137 23409 c-12 -7 -16 -17 -12 -30 9 -26 -20 -59 -50 -59 -29 0
-38 -24 -17 -43 9 -8 44 -29 77 -47 46 -25 67 -32 88 -26 31 7 32 18 17 110
-10 61 -31 89 -62 82 -9 -2 -18 2 -20 9 -2 10 -8 11 -21 4z"/>
<path d="M9824 23388 c2 -7 -1 -21 -6 -31 -8 -15 -6 -18 9 -15 10 2 17 11 15
21 -2 9 2 17 8 17 5 0 10 5 10 11 0 8 -4 8 -14 0 -10 -8 -16 -9 -19 -1 -3 6
-4 5 -3 -2z"/>
<path d="M9790 23320 c0 -5 5 -10 10 -10 6 0 10 5 10 10 0 6 -4 10 -10 10 -5
0 -10 -4 -10 -10z"/>
<path d="M9781 23254 c0 -11 3 -14 6 -6 3 7 2 16 -1 19 -3 4 -6 -2 -5 -13z"/>
<path d="M14096 23132 c-2 -4 -1 -14 3 -21 6 -9 10 -7 14 8 5 20 -7 29 -17 13z"/>
<path d="M13650 23100 c0 -5 5 -10 11 -10 5 0 7 5 4 10 -3 6 -8 10 -11 10 -2
0 -4 -4 -4 -10z"/>
<path d="M9690 23045 c0 -8 5 -15 10 -15 6 0 10 7 10 15 0 8 -4 15 -10 15 -5
0 -10 -7 -10 -15z"/>
<path d="M15441 23044 c0 -11 3 -14 6 -6 3 7 2 16 -1 19 -3 4 -6 -2 -5 -13z"/>
<path d="M14430 23001 c0 -6 5 -13 10 -16 6 -3 10 1 10 9 0 9 -4 16 -10 16 -5
0 -10 -4 -10 -9z"/>
<path d="M15410 23000 c0 -5 5 -10 10 -10 6 0 10 5 10 10 0 6 -4 10 -10 10 -5
0 -10 -4 -10 -10z"/>
<path d="M15090 22909 c0 -5 5 -7 10 -4 6 3 10 8 10 11 0 2 -4 4 -10 4 -5 0
-10 -5 -10 -11z"/>
<path d="M14841 22564 c0 -11 3 -14 6 -6 3 7 2 16 -1 19 -3 4 -6 -2 -5 -13z"/>
<path d="M9690 22560 c0 -5 5 -10 11 -10 5 0 7 5 4 10 -3 6 -8 10 -11 10 -2 0
-4 -4 -4 -10z"/>
<path d="M14252 22549 c2 -7 10 -15 17 -17 8 -3 12 1 9 9 -2 7 -10 15 -17 17
-8 3 -12 -1 -9 -9z"/>
<path d="M9957 22435 c-8 -20 -4 -29 11 -24 5 2 6 13 2 23 -6 19 -7 19 -13 1z"/>
<path d="M9855 22350 c-3 -5 -1 -10 4 -10 6 0 11 5 11 10 0 6 -2 10 -4 10 -3
0 -8 -4 -11 -10z"/>
<path d="M9855 22270 c10 -11 20 -18 23 -15 7 6 -18 35 -31 35 -5 0 -2 -9 8
-20z"/>
<path d="M13578 22173 c-10 -2 -18 -9 -18 -14 0 -13 12 -11 34 6 20 15 16 17
-16 8z"/>
<path d="M13565 22131 c-6 -11 9 -23 19 -14 9 9 7 23 -3 23 -6 0 -12 -4 -16
-9z"/>
<path d="M13590 22072 c0 -7 5 -12 10 -12 6 0 10 -6 10 -14 0 -7 7 -19 15 -26
27 -22 18 14 -10 40 -14 13 -25 18 -25 12z"/>
<path d="M13480 21589 c0 -5 5 -7 10 -4 6 3 10 8 10 11 0 2 -4 4 -10 4 -5 0
-10 -5 -10 -11z"/>
<path d="M13500 21570 c0 -5 5 -10 11 -10 5 0 7 5 4 10 -3 6 -8 10 -11 10 -2
0 -4 -4 -4 -10z"/>
<path d="M13730 21310 c0 -5 -9 -10 -20 -10 -30 0 -24 -14 10 -27 29 -11 30
-10 30 18 0 16 -4 29 -10 29 -5 0 -10 -4 -10 -10z"/>
<path d="M13505 20920 c-3 -5 -1 -10 4 -10 6 0 11 5 11 10 0 6 -2 10 -4 10 -3
0 -8 -4 -11 -10z"/>
<path d="M13340 20826 c0 -9 5 -16 10 -16 6 0 10 4 10 9 0 6 -4 13 -10 16 -5
3 -10 -1 -10 -9z"/>
<path d="M13261 20764 c0 -11 3 -14 6 -6 3 7 2 16 -1 19 -3 4 -6 -2 -5 -13z"/>
<path d="M13350 20694 c0 -8 5 -12 10 -9 6 3 10 10 10 16 0 5 -4 9 -10 9 -5 0
-10 -7 -10 -16z"/>
<path d="M13288 20643 c7 -3 16 -2 19 1 4 3 -2 6 -13 5 -11 0 -14 -3 -6 -6z"/>
<path d="M13220 20619 c0 -5 5 -7 10 -4 6 3 10 8 10 11 0 2 -4 4 -10 4 -5 0
-10 -5 -10 -11z"/>
<path d="M13170 20591 c0 -6 4 -13 10 -16 6 -3 7 1 4 9 -7 18 -14 21 -14 7z"/>
<path d="M13226 20525 c4 -9 16 -21 28 -27 19 -10 19 -9 -3 16 -28 30 -33 32
-25 11z"/>
<path d="M13466 20391 c-9 -14 12 -63 24 -56 16 10 12 65 -4 65 -8 0 -17 -4
-20 -9z"/>
<path d="M14028 20323 c-26 -7 -22 -28 7 -41 35 -16 35 -16 35 18 0 30 -6 33
-42 23z"/>
<path d="M13846 20262 c-3 -6 3 -12 15 -15 12 -3 19 -1 16 6 -5 15 -24 20 -31
9z"/>
<path d="M13773 20234 c-4 -10 -2 -19 5 -22 7 -2 12 -10 12 -18 0 -8 9 -14 20
-14 19 0 20 2 5 29 -19 38 -33 47 -42 25z"/>
<path d="M13930 20210 c0 -5 5 -10 11 -10 5 0 7 5 4 10 -3 6 -8 10 -11 10 -2
0 -4 -4 -4 -10z"/>
<path d="M14266 20165 c4 -8 10 -12 15 -9 14 8 10 24 -6 24 -9 0 -12 -6 -9
-15z"/>
<path d="M14214 19615 c10 -8 23 -12 29 -8 11 7 -12 23 -33 23 -12 -1 -11 -4
4 -15z"/>
<path d="M14165 19609 c-4 -11 -24 -19 -56 -23 -27 -4 -49 -11 -49 -16 0 -12
23 -13 34 -2 4 4 25 7 47 8 46 0 54 6 41 31 -10 16 -11 16 -17 2z"/>
<path d="M13063 18714 c-15 -16 -17 -28 -3 -19 6 3 10 -1 10 -9 0 -9 6 -16 13
-16 14 0 39 35 30 44 -10 10 -25 7 -18 -4 3 -5 2 -10 -4 -10 -5 0 -11 6 -13
14 -2 12 -5 12 -15 0z"/>
<path d="M13141 17284 c0 -11 3 -14 6 -6 3 7 2 16 -1 19 -3 4 -6 -2 -5 -13z"/>
</g>
</svg>
